<svg xmlns="http://www.w3.org/2000/svg" viewBox="0 0 500 500"><g id="freepik--Bubbles--inject-89"><g id="freepik--bubbles--inject-89"><path d="M441.7,84.64a7,7,0,1,1,7-7A7,7,0,0,1,441.7,84.64Zm0-13a6,6,0,1,0,6,6A6,6,0,0,0,441.7,71.65Z" style="fill:#f0f0f0"></path><path d="M302,115.63a7,7,0,1,1,7-7A7,7,0,0,1,302,115.63Zm0-13a6,6,0,1,0,6,6A6,6,0,0,0,302,102.64Z" style="fill:#f0f0f0"></path><path d="M121,60.56a7,7,0,1,1,7-7A7,7,0,0,1,121,60.56Zm0-13a6,6,0,1,0,6,6A6,6,0,0,0,121,47.57Z" style="fill:#f0f0f0"></path><path d="M398.81,46.57a7,7,0,1,1,7-7A7,7,0,0,1,398.81,46.57Zm0-13a6,6,0,1,0,6,6A6,6,0,0,0,398.81,33.58Z" style="fill:#f0f0f0"></path><path d="M441.7,215.72a7,7,0,1,1,7-7A7,7,0,0,1,441.7,215.72Zm0-13a6,6,0,1,0,6,6A6,6,0,0,0,441.7,202.74Z" style="fill:#f0f0f0"></path><path d="M43.6,78a7,7,0,1,1,7-7A7,7,0,0,1,43.6,78Zm0-13a6,6,0,1,0,6,6A6,6,0,0,0,43.6,65Z" style="fill:#f0f0f0"></path><path d="M61,198.65a7,7,0,1,1,7-7A7,7,0,0,1,61,198.65Zm0-13a6,6,0,1,0,6,6A6,6,0,0,0,61,185.67Z" style="fill:#f0f0f0"></path><path d="M198,42a7,7,0,1,1,7-7A7,7,0,0,1,198,42Zm0-13a6,6,0,1,0,6,6A6,6,0,0,0,198,29Z" style="fill:#f0f0f0"></path><path d="M196.52,79.79a3.38,3.38,0,1,1-3.38-3.38A3.38,3.38,0,0,1,196.52,79.79Z" style="fill:#f0f0f0"></path><path d="M104.57,97.85a3.38,3.38,0,1,1-3.38-3.38A3.38,3.38,0,0,1,104.57,97.85Z" style="fill:#f0f0f0"></path><path d="M395.19,81.35A3.38,3.38,0,1,1,391.81,78,3.38,3.38,0,0,1,395.19,81.35Z" style="fill:#f0f0f0"></path><path d="M85.85,40.81a3.38,3.38,0,1,1-3.38-3.38A3.38,3.38,0,0,1,85.85,40.81Z" style="fill:#f0f0f0"></path><path d="M310.16,51.66a3.38,3.38,0,1,1-3.38-3.38A3.38,3.38,0,0,1,310.16,51.66Z" style="fill:#f0f0f0"></path><path d="M39.84,213.65a3.38,3.38,0,1,1-3.37-3.38A3.37,3.37,0,0,1,39.84,213.65Z" style="fill:#f0f0f0"></path><path d="M47,157a3.38,3.38,0,1,1-3.38-3.37A3.38,3.38,0,0,1,47,157Z" style="fill:#f0f0f0"></path><path d="M465,115.17a3.38,3.38,0,1,1-3.38-3.38A3.38,3.38,0,0,1,465,115.17Z" style="fill:#f0f0f0"></path><path d="M462.44,178.48a3.38,3.38,0,1,1-3.38-3.37A3.38,3.38,0,0,1,462.44,178.48Z" style="fill:#f0f0f0"></path></g></g><g id="freepik--Floor--inject-89"><path id="freepik--floor--inject-89" d="M77.66,249c-95.18,54.95-95.17,144.05,0,199S327.16,503,422.34,448s95.17-144,0-199S172.84,194.06,77.66,249Z" style="fill:#f5f5f5"></path></g><g id="freepik--Shadows--inject-89"><path id="freepik--Shadow--inject-89" d="M136.66,306.08c-1.55.89,1.91,4.32,7.72,7.68l16.31,9.41c5.81,3.36,9.28,6.79,7.76,7.68s-7.48-1.11-13.29-4.46L138.85,317c-5.81-3.36-11.77-5.36-13.31-4.47s1.92,4.33,7.73,7.68l16.31,9.42c5.81,3.35,9.27,6.78,7.72,7.65s-7.5-1.14-13.31-4.49l-16.25-9.36c-5.81-3.35-11.77-5.35-13.31-4.46s1.92,4.33,7.73,7.68L138.4,336c5.81,3.35,9.29,6.79,7.76,7.68s-7.48-1.11-13.29-4.46l-16.24-9.36c-5.81-3.36-11.77-5.35-13.31-4.46s1.91,4.32,7.72,7.67l16.25,9.37c5.81,3.35,9.28,6.79,7.76,7.67s-7.47-1.11-13.28-4.47l-16.26-9.4c-5.81-3.35-11.76-5.34-13.31-4.44s1.92,4.36,7.73,7.71l16.24,9.37c5.81,3.35,9.29,6.78,7.76,7.67s-7.47-1.11-13.27-4.47l-16.26-9.4c-5.81-3.36-11.77-5.36-13.31-4.47s1.91,4.33,7.72,7.69l16.26,9.4c5.81,3.36,9.28,6.79,7.75,7.66s-7.47-1.14-13.28-4.5L83.35,349.1c-5.81-3.35-11.77-5.35-13.31-4.46S72,349,77.75,352.33L94,361.72c5.8,3.36,9.27,6.79,7.75,7.66s-7.47-1.14-13.28-4.49l-16.19-9.35c-5.81-3.35-11.77-5.35-13.32-4.46s1.92,4.32,7.73,7.68l16.19,9.35c5.81,3.35,9.28,6.79,7.75,7.68s-7.47-1.11-13.28-4.46L61.12,362c-5.81-3.36-11.77-5.36-13.31-4.47s1.92,4.33,7.72,7.69l16.2,9.35c5.8,3.35,9.28,6.78,7.75,7.65s-7.48-1.14-13.29-4.48L50,368.4c-5.82-3.35-11.78-5.34-13.32-4.45s1.91,4.33,7.72,7.68L60.61,381c5.81,3.36,9.28,6.78,7.76,7.66s-7.48-1.14-13.29-4.5L26.75,367.8c-5.81-3.35-5.81-8.79,0-12.14l95.8-55.32c5.81-3.36,15.23-3.36,21,0l28.33,16.35c5.81,3.35,9.26,6.8,7.7,7.71s-7.53-1.08-13.34-4.44L150,310.54C144.16,307.19,138.2,305.19,136.66,306.08Z" style="fill:#e0e0e0"></path><path id="freepik--shadow--inject-89" d="M363.34,306.08c1.55.89-1.91,4.32-7.72,7.68l-16.31,9.41c-5.81,3.36-9.28,6.79-7.76,7.68s7.48-1.11,13.29-4.46L361.15,317c5.81-3.36,11.77-5.36,13.31-4.47s-1.92,4.33-7.73,7.68l-16.31,9.42c-5.81,3.35-9.26,6.78-7.72,7.65s7.5-1.14,13.31-4.49l16.25-9.36c5.81-3.35,11.77-5.35,13.31-4.46s-1.92,4.33-7.73,7.68L361.6,336c-5.81,3.35-9.29,6.79-7.76,7.68s7.48-1.11,13.29-4.46l16.24-9.36c5.81-3.36,11.77-5.35,13.31-4.46s-1.91,4.32-7.72,7.67l-16.25,9.37c-5.81,3.35-9.28,6.79-7.76,7.67s7.47-1.11,13.28-4.47l16.26-9.4c5.81-3.35,11.76-5.34,13.31-4.44s-1.92,4.36-7.73,7.71l-16.24,9.37c-5.81,3.35-9.29,6.78-7.76,7.67s7.47-1.11,13.27-4.47l16.26-9.4c5.81-3.36,11.77-5.36,13.31-4.47s-1.91,4.33-7.72,7.69l-16.26,9.4c-5.81,3.36-9.28,6.79-7.75,7.66s7.47-1.14,13.28-4.5l16.19-9.35c5.81-3.35,11.77-5.35,13.31-4.46s-1.91,4.33-7.71,7.69L406,361.72c-5.8,3.36-9.27,6.79-7.75,7.66s7.47-1.14,13.28-4.49l16.2-9.35c5.8-3.35,11.76-5.35,13.31-4.46s-1.92,4.32-7.73,7.68l-16.19,9.35c-5.81,3.35-9.28,6.79-7.75,7.68s7.47-1.11,13.28-4.46L438.88,362c5.81-3.36,11.77-5.36,13.31-4.47s-1.92,4.33-7.72,7.69l-16.2,9.35c-5.8,3.35-9.28,6.78-7.75,7.65s7.48-1.14,13.29-4.48L450,368.4c5.82-3.35,11.78-5.34,13.32-4.45s-1.91,4.33-7.72,7.68L439.39,381c-5.81,3.36-9.28,6.78-7.76,7.66s7.48-1.14,13.29-4.5l28.33-16.34c5.81-3.35,5.81-8.79,0-12.14l-95.8-55.32c-5.81-3.36-15.23-3.36-21,0l-28.33,16.35c-5.81,3.35-9.26,6.8-7.7,7.71s7.53-1.08,13.34-4.44L350,310.54C355.84,307.19,361.8,305.19,363.34,306.08Z" style="fill:#e0e0e0"></path><ellipse id="freepik--shadow--inject-89" cx="152.18" cy="422.1" rx="74.68" ry="43.12" style="fill:#e0e0e0"></ellipse><ellipse id="freepik--shadow--inject-89" cx="347.82" cy="422.1" rx="74.68" ry="43.12" style="fill:#e0e0e0"></ellipse><ellipse id="freepik--shadow--inject-89" cx="249.85" cy="397.17" rx="56.96" ry="32.88" style="fill:#e0e0e0"></ellipse></g><g id="freepik--hair-combs--inject-89"><path id="freepik--hair-comb--inject-89" d="M136.66,301.77c-1.55.89,1.91,4.33,7.72,7.69l16.31,9.41c5.81,3.35,9.28,6.79,7.76,7.68s-7.48-1.11-13.29-4.46l-16.31-9.42c-5.81-3.35-11.77-5.35-13.31-4.46s1.92,4.33,7.73,7.68l16.31,9.42c5.81,3.35,9.27,6.78,7.72,7.65s-7.5-1.14-13.31-4.49l-16.25-9.36c-5.81-3.35-11.77-5.35-13.31-4.46s1.92,4.32,7.73,7.67l16.24,9.37c5.81,3.35,9.29,6.79,7.76,7.67s-7.48-1.1-13.29-4.45l-16.24-9.37c-5.81-3.35-11.77-5.34-13.31-4.45s1.91,4.32,7.72,7.67l16.25,9.37c5.81,3.35,9.28,6.78,7.76,7.67s-7.47-1.11-13.28-4.47l-16.26-9.4c-5.81-3.36-11.76-5.34-13.31-4.44s1.92,4.36,7.73,7.71l16.24,9.36c5.81,3.35,9.29,6.79,7.76,7.68s-7.47-1.11-13.27-4.47l-16.26-9.4C88.59,335,82.63,333,81.09,333.9s1.91,4.33,7.72,7.69l16.26,9.4c5.81,3.35,9.28,6.78,7.75,7.66s-7.47-1.15-13.28-4.5L83.35,344.8c-5.81-3.35-11.77-5.35-13.31-4.46S72,344.67,77.75,348L94,357.42c5.8,3.36,9.27,6.79,7.75,7.66s-7.47-1.14-13.28-4.49l-16.19-9.35c-5.81-3.36-11.77-5.36-13.32-4.47s1.92,4.33,7.73,7.69l16.19,9.35c5.81,3.35,9.28,6.79,7.75,7.68s-7.47-1.11-13.28-4.47l-16.19-9.35c-5.81-3.35-11.77-5.35-13.31-4.46s1.92,4.33,7.72,7.68l16.2,9.35c5.8,3.36,9.28,6.78,7.75,7.66s-7.48-1.14-13.29-4.49L50,364.1c-5.82-3.35-11.78-5.34-13.32-4.45s1.91,4.33,7.72,7.68l16.19,9.35c5.81,3.35,9.28,6.78,7.76,7.65s-7.48-1.14-13.29-4.49L26.75,363.5c-5.81-3.35-5.81-8.79,0-12.14L122.55,296c5.81-3.36,15.23-3.36,21,0l28.33,16.35c5.81,3.35,9.26,6.8,7.7,7.7s-7.53-1.08-13.34-4.43L150,306.24C144.16,302.88,138.2,300.89,136.66,301.77Z" style="fill:#fafafa"></path><path d="M67.32,385c-2.77,0-8.11-2.23-12.49-4.75L26.5,363.93c-3-1.71-4.6-4-4.61-6.5s1.64-4.79,4.61-6.51l95.8-55.32c5.94-3.43,15.6-3.43,21.54,0l28.33,16.34c3.84,2.21,8.32,5.51,8.32,7.51a1.19,1.19,0,0,1-.62,1.07c-2,1.15-8.62-1.42-13.84-4.44l-16.31-9.41c-6.05-3.49-11.61-5.15-12.82-4.46h0c-.09.06-.11.1-.11.18,0,.88,2.43,3.51,7.84,6.63l16.31,9.42c3.86,2.22,8.36,5.52,8.37,7.5a1.18,1.18,0,0,1-.61,1c-2,1.14-8.56-1.45-13.79-4.46l-16.31-9.41c-6-3.5-11.6-5.16-12.81-4.47a.19.19,0,0,0-.12.19c0,.87,2.44,3.51,7.85,6.63l16.31,9.41c3.85,2.23,8.35,5.52,8.34,7.48a1.15,1.15,0,0,1-.62,1c-2,1.12-8.59-1.48-13.81-4.49l-16.24-9.36c-6.06-3.49-11.62-5.15-12.82-4.46a.19.19,0,0,0-.12.19c0,.87,2.44,3.5,7.85,6.62l16.24,9.37c3.86,2.22,8.36,5.52,8.37,7.49a1.18,1.18,0,0,1-.61,1.05c-1.95,1.13-8.56-1.45-13.79-4.46L116.38,326c-6-3.49-11.61-5.15-12.81-4.46-.1.06-.12.1-.12.18,0,.88,2.43,3.51,7.84,6.63l16.25,9.36c3.85,2.23,8.36,5.52,8.37,7.5a1.18,1.18,0,0,1-.61,1c-2,1.15-8.56-1.45-13.78-4.46l-16.26-9.41c-6.05-3.49-11.6-5.14-12.8-4.44-.11.06-.13.12-.12.2,0,.88,2.44,3.53,7.84,6.65l16.24,9.36c3.86,2.22,8.37,5.52,8.37,7.5a1.16,1.16,0,0,1-.61,1c-2,1.14-8.56-1.45-13.77-4.47l-16.26-9.4c-6.05-3.5-11.61-5.16-12.81-4.47a.19.19,0,0,0-.12.19c0,.87,2.43,3.51,7.84,6.63l16.26,9.41c3.86,2.23,8.36,5.53,8.36,7.49a1.16,1.16,0,0,1-.61,1c-2,1.12-8.56-1.48-13.78-4.5L83.1,345.23c-6-3.49-11.61-5.15-12.81-4.46-.1.06-.12.1-.12.18,0,.88,2.43,3.52,7.83,6.65L94.21,357c3.86,2.24,8.36,5.54,8.36,7.5a1.18,1.18,0,0,1-.62,1c-2,1.11-8.55-1.49-13.77-4.5L72,351.67c-6-3.49-11.6-5.16-12.81-4.46a.16.16,0,0,0-.11.18c0,.87,2.43,3.51,7.84,6.63l16.19,9.35c3.85,2.23,8.36,5.53,8.36,7.51a1.16,1.16,0,0,1-.61,1c-2,1.14-8.56-1.45-13.78-4.46l-16.19-9.35c-6-3.5-11.6-5.16-12.81-4.47a.19.19,0,0,0-.12.19c0,.87,2.44,3.51,7.84,6.63L72,369.81c3.86,2.23,8.36,5.53,8.36,7.49a1.15,1.15,0,0,1-.61,1c-2,1.12-8.57-1.48-13.79-4.48l-16.17-9.32c-6.06-3.48-11.62-5.14-12.82-4.45-.1.06-.12.11-.12.18,0,.88,2.43,3.51,7.84,6.64l16.19,9.35c3.86,2.23,8.37,5.53,8.37,7.48a1.17,1.17,0,0,1-.61,1A2.68,2.68,0,0,1,67.32,385Zm65.76-91a21,21,0,0,0-10.28,2.45L27,351.79c-2.65,1.53-4.11,3.53-4.11,5.64s1.46,4.11,4.11,5.64l28.33,16.34c6.06,3.49,11.6,5.17,12.79,4.49.1-.06.11-.1.11-.17,0-.86-2.44-3.48-7.87-6.62l-16.19-9.35c-3.85-2.22-8.34-5.52-8.34-7.5a1.18,1.18,0,0,1,.62-1.05c2-1.13,8.59,1.45,13.82,4.46L66.44,373c6.06,3.49,11.6,5.16,12.79,4.48.1,0,.11-.1.11-.16,0-.87-2.44-3.49-7.86-6.62l-16.2-9.35c-3.84-2.23-8.34-5.52-8.34-7.5a1.17,1.17,0,0,1,.62-1.05c2-1.14,8.59,1.45,13.81,4.46l16.19,9.35c6,3.49,11.59,5.16,12.78,4.47.1-.06.11-.1.11-.18,0-.87-2.44-3.51-7.86-6.64L66.4,354.89c-3.85-2.22-8.34-5.52-8.34-7.5a1.18,1.18,0,0,1,.61-1.05c2-1.14,8.6,1.45,13.81,4.46l16.2,9.35c6,3.5,11.59,5.18,12.78,4.5.1-.06.11-.1.11-.17,0-.86-2.44-3.49-7.86-6.63L77.5,348.46c-3.84-2.22-8.33-5.53-8.33-7.51a1.18,1.18,0,0,1,.62-1.05c2-1.13,8.59,1.45,13.81,4.47l16.19,9.35c6,3.49,11.59,5.17,12.78,4.49.1-.06.11-.1.11-.17,0-.86-2.44-3.48-7.86-6.62L88.56,342c-3.85-2.22-8.34-5.52-8.34-7.5a1.17,1.17,0,0,1,.62-1c2-1.14,8.59,1.45,13.81,4.47l16.26,9.4c6,3.49,11.58,5.16,12.77,4.47.09-.06.11-.1.11-.18,0-.87-2.44-3.51-7.87-6.63l-16.24-9.37c-3.84-2.21-8.34-5.51-8.34-7.51a1.16,1.16,0,0,1,.61-1.06c2-1.16,8.59,1.42,13.81,4.44L122,340.9c6,3.5,11.59,5.16,12.77,4.47.1-.06.12-.1.12-.18,0-.87-2.45-3.5-7.87-6.63l-16.25-9.37c-3.85-2.21-8.34-5.51-8.34-7.49a1.17,1.17,0,0,1,.62-1.05c2-1.14,8.59,1.45,13.81,4.46l16.24,9.36c6.06,3.49,11.6,5.15,12.79,4.46a.18.18,0,0,0,.11-.18c0-.87-2.45-3.5-7.87-6.63l-16.24-9.36c-3.85-2.22-8.35-5.52-8.35-7.49a1.16,1.16,0,0,1,.62-1c2-1.14,8.59,1.44,13.81,4.45L144.24,328c6,3.49,11.61,5.16,12.82,4.48.1-.06.11-.1.11-.17,0-.86-2.43-3.48-7.84-6.61L133,316.33c-3.85-2.23-8.35-5.52-8.35-7.5a1.17,1.17,0,0,1,.62-1.05c2-1.14,8.59,1.45,13.81,4.46l16.31,9.42c6.05,3.49,11.59,5.15,12.78,4.46.1-.06.12-.1.12-.18,0-.87-2.45-3.51-7.87-6.64l-16.31-9.41c-3.85-2.22-8.34-5.52-8.34-7.5a1.17,1.17,0,0,1,.62-1.05h0c2-1.14,8.59,1.45,13.81,4.46l16.31,9.42c6.05,3.49,11.62,5.13,12.84,4.43a.19.19,0,0,0,.12-.2c0-.89-2.42-3.53-7.82-6.64l-28.33-16.35A21,21,0,0,0,133.08,294Z" style="fill:#e0e0e0"></path><path id="freepik--hair-comb--inject-89" d="M363.34,301.77c1.55.89-1.91,4.33-7.72,7.69l-16.31,9.41c-5.81,3.35-9.28,6.79-7.76,7.68s7.48-1.11,13.29-4.46l16.31-9.42c5.81-3.35,11.77-5.35,13.31-4.46s-1.92,4.33-7.73,7.68l-16.31,9.42c-5.81,3.35-9.26,6.78-7.72,7.65s7.5-1.14,13.31-4.49l16.25-9.36c5.81-3.35,11.77-5.35,13.31-4.46s-1.92,4.32-7.73,7.67l-16.24,9.37c-5.81,3.35-9.29,6.79-7.76,7.67s7.48-1.1,13.29-4.45l16.24-9.37c5.81-3.35,11.77-5.34,13.31-4.45s-1.91,4.32-7.72,7.67l-16.25,9.37c-5.81,3.35-9.28,6.78-7.76,7.67s7.47-1.11,13.28-4.47l16.26-9.4c5.81-3.36,11.76-5.34,13.31-4.44s-1.92,4.36-7.73,7.71l-16.24,9.36c-5.81,3.35-9.29,6.79-7.76,7.68s7.47-1.11,13.27-4.47l16.26-9.4c5.81-3.36,11.77-5.36,13.31-4.47s-1.91,4.33-7.72,7.69L394.93,351c-5.81,3.35-9.28,6.78-7.75,7.66s7.47-1.15,13.28-4.5l16.19-9.35c5.81-3.35,11.77-5.35,13.31-4.46s-1.91,4.33-7.71,7.69L406,357.42c-5.8,3.36-9.27,6.79-7.75,7.66s7.47-1.14,13.28-4.49l16.2-9.35c5.8-3.36,11.76-5.36,13.31-4.47s-1.92,4.33-7.73,7.69l-16.19,9.35c-5.81,3.35-9.28,6.79-7.75,7.68s7.47-1.11,13.28-4.47l16.19-9.35c5.81-3.35,11.77-5.35,13.31-4.46s-1.92,4.33-7.72,7.68l-16.2,9.35c-5.8,3.36-9.28,6.78-7.75,7.66s7.48-1.14,13.29-4.49L450,364.1c5.82-3.35,11.78-5.34,13.32-4.45s-1.91,4.33-7.72,7.68l-16.19,9.35c-5.81,3.35-9.28,6.78-7.76,7.65s7.48-1.14,13.29-4.49l28.33-16.34c5.81-3.35,5.81-8.79,0-12.14L377.45,296c-5.81-3.36-15.23-3.36-21,0l-28.33,16.35c-5.81,3.35-9.26,6.8-7.7,7.7s7.53-1.08,13.34-4.43L350,306.24C355.84,302.88,361.8,300.89,363.34,301.77Z" style="fill:#fafafa"></path><path d="M432.68,385a2.68,2.68,0,0,1-1.3-.26,1.17,1.17,0,0,1-.61-1c0-2,4.51-5.25,8.37-7.48l16.19-9.35c5.41-3.13,7.84-5.76,7.84-6.64,0-.07,0-.12-.12-.18-1.2-.69-6.76,1-12.82,4.45l-16.17,9.32c-5.23,3-11.83,5.6-13.79,4.48a1.15,1.15,0,0,1-.61-1c0-2,4.5-5.26,8.36-7.49l16.2-9.35c5.4-3.12,7.84-5.76,7.84-6.63a.19.19,0,0,0-.12-.19c-1.2-.69-6.76,1-12.81,4.47l-16.19,9.35c-5.22,3-11.82,5.6-13.78,4.46a1.16,1.16,0,0,1-.61-1c0-2,4.51-5.28,8.36-7.51L433.1,354c5.41-3.12,7.84-5.76,7.84-6.63a.16.16,0,0,0-.11-.18c-1.21-.7-6.76,1-12.82,4.46L411.82,361c-5.22,3-11.82,5.61-13.77,4.5a1.18,1.18,0,0,1-.62-1c0-2,4.5-5.26,8.36-7.5L422,347.6c5.4-3.13,7.83-5.77,7.83-6.65,0-.08,0-.12-.12-.18-1.2-.7-6.76,1-12.81,4.46l-16.19,9.35c-5.22,3-11.82,5.62-13.78,4.5a1.16,1.16,0,0,1-.61-1c0-2,4.5-5.26,8.36-7.5l16.26-9.4c5.41-3.12,7.84-5.76,7.84-6.63a.19.19,0,0,0-.12-.19c-1.2-.69-6.76,1-12.81,4.47l-16.26,9.4c-5.21,3-11.81,5.61-13.77,4.47a1.16,1.16,0,0,1-.61-1c0-2,4.51-5.28,8.37-7.5l16.24-9.36c5.4-3.12,7.84-5.77,7.85-6.65a.2.2,0,0,0-.13-.2c-1.2-.7-6.75.95-12.8,4.44l-16.26,9.41c-5.22,3-11.82,5.61-13.78,4.46a1.18,1.18,0,0,1-.61-1c0-2,4.52-5.27,8.37-7.5l16.25-9.36c5.41-3.12,7.84-5.75,7.84-6.63,0-.08,0-.12-.11-.18-1.21-.69-6.77,1-12.82,4.46l-16.24,9.36c-5.22,3-11.83,5.6-13.79,4.46a1.18,1.18,0,0,1-.61-1.05c0-2,4.51-5.27,8.37-7.49l16.24-9.37c5.41-3.12,7.85-5.75,7.85-6.62a.19.19,0,0,0-.12-.19c-1.2-.69-6.76,1-12.81,4.46l-16.25,9.36c-5.22,3-11.83,5.61-13.81,4.49a1.15,1.15,0,0,1-.62-1c0-2,4.49-5.25,8.34-7.48l16.31-9.41c5.41-3.12,7.85-5.76,7.85-6.63a.19.19,0,0,0-.12-.19c-1.2-.69-6.76,1-12.81,4.47l-16.31,9.41c-5.22,3-11.83,5.61-13.79,4.46a1.15,1.15,0,0,1-.6-1c0-2,4.5-5.28,8.36-7.5L355.37,309c5.41-3.12,7.84-5.75,7.84-6.63,0-.08,0-.12-.11-.18h0c-1.19-.7-6.76,1-12.81,4.46L334,316.08c-5.22,3-11.85,5.6-13.84,4.44a1.19,1.19,0,0,1-.62-1.07c0-2,4.48-5.29,8.32-7.51l28.33-16.34c5.93-3.43,15.6-3.43,21.54,0l95.8,55.32c3,1.72,4.61,4,4.61,6.51s-1.64,4.79-4.61,6.5l-28.33,16.35C440.79,382.8,435.45,385,432.68,385Zm29.54-26.09a2.78,2.78,0,0,1,1.33.27,1.18,1.18,0,0,1,.62,1.05c0,2-4.49,5.28-8.34,7.5l-16.19,9.35c-5.43,3.14-7.87,5.76-7.87,6.62,0,.07,0,.11.11.17,1.19.68,6.73-1,12.79-4.49L473,363.07c2.65-1.53,4.11-3.53,4.11-5.64s-1.46-4.11-4.11-5.64l-95.8-55.32c-5.67-3.27-14.88-3.27-20.54,0l-28.33,16.35c-5.4,3.11-7.82,5.75-7.82,6.64a.2.2,0,0,0,.12.2c1.22.7,6.79-.94,12.84-4.43l16.31-9.42c5.22-3,11.83-5.6,13.81-4.46a1.17,1.17,0,0,1,.62,1.05c0,2-4.49,5.28-8.34,7.5l-16.31,9.41c-5.42,3.13-7.86,5.77-7.86,6.64,0,.08,0,.12.11.18,1.18.69,6.73-1,12.78-4.46l16.31-9.42c5.21-3,11.83-5.61,13.81-4.46a1.17,1.17,0,0,1,.62,1.05c0,2-4.5,5.27-8.35,7.5l-16.31,9.41c-5.41,3.13-7.84,5.75-7.84,6.61,0,.07,0,.11.11.17,1.21.69,6.77-1,12.82-4.48L372,318.67c5.22-3,11.84-5.59,13.81-4.45a1.16,1.16,0,0,1,.62,1c0,2-4.5,5.27-8.35,7.49l-16.24,9.36c-5.42,3.13-7.87,5.76-7.87,6.64a.17.17,0,0,0,.11.17c1.19.7,6.74-1,12.79-4.46l16.24-9.36c5.22-3,11.84-5.6,13.81-4.46a1.17,1.17,0,0,1,.62,1.05c0,2-4.49,5.28-8.34,7.49L373,338.56c-5.42,3.13-7.86,5.76-7.87,6.63,0,.08,0,.12.12.18,1.18.69,6.72-1,12.77-4.47l16.26-9.4c5.22-3,11.83-5.6,13.81-4.44a1.19,1.19,0,0,1,.62,1.06c0,2-4.51,5.3-8.35,7.51L384.08,345c-5.43,3.12-7.87,5.76-7.87,6.63,0,.08,0,.12.11.18,1.18.69,6.73-1,12.77-4.47l16.26-9.4c5.22-3,11.83-5.61,13.81-4.47a1.17,1.17,0,0,1,.62,1c0,2-4.49,5.28-8.34,7.5l-16.26,9.4c-5.42,3.14-7.86,5.76-7.86,6.62,0,.07,0,.11.11.17,1.19.68,6.73-1,12.78-4.49l16.19-9.35c5.22-3,11.84-5.61,13.81-4.47a1.17,1.17,0,0,1,.62,1.05c0,2-4.49,5.29-8.33,7.51l-16.21,9.39c-5.42,3.14-7.86,5.77-7.86,6.63,0,.06,0,.11.11.17,1.18.68,6.73-1,12.78-4.5l16.19-9.35c5.22-3,11.84-5.6,13.82-4.46a1.18,1.18,0,0,1,.61,1.05c0,2-4.49,5.28-8.34,7.5l-16.19,9.35c-5.42,3.13-7.86,5.77-7.86,6.64,0,.08,0,.12.11.18,1.18.69,6.73-1,12.78-4.47l16.19-9.35c5.22-3,11.83-5.6,13.81-4.46a1.17,1.17,0,0,1,.62,1.05c0,2-4.5,5.27-8.34,7.5l-16.2,9.35c-5.42,3.13-7.86,5.75-7.86,6.62,0,.06,0,.11.11.16,1.19.68,6.73-1,12.79-4.48l16.17-9.31C454.09,361.15,459.43,358.94,462.22,358.94Z" style="fill:#e0e0e0"></path></g><g id="freepik--barber-pole--inject-89"><g id="freepik--Pole--inject-89"><path id="freepik--sphere-12--inject-89" d="M219.77,373.58c0-4.47,2.95-8.93,8.85-12.34,11.81-6.82,30.95-6.82,42.76,0,5.9,3.41,8.85,7.87,8.85,12.34a30.23,30.23,0,0,1-60.46,0Z" style="fill:#37474f"></path><path d="M222.49,366.33c6.94-4.12,19.46-7.48,31.35-2.79,16.8,6.61,19.86,32.31,1.31,39.83a30.23,30.23,0,0,0,25.08-29.79c0-4.47-3-8.93-8.85-12.34-11.81-6.82-30.95-6.82-42.76,0A21.39,21.39,0,0,0,222.49,366.33Z" style="fill:#263238"></path><path d="M250.63,399.13a9.7,9.7,0,0,0,6.68-4.95c1.34-2.5,1.05-5.95-1.12-7.78a9.87,9.87,0,0,0-4.11-1.75c-4.27-1.08-8.66-1.92-12.61-3.88-3.46-1.71-6.51-4.25-10.14-5.55a2.42,2.42,0,0,0-1.42-.19,2.16,2.16,0,0,0-1.18,1c-2.19,3.25-1.07,7.69.8,11.14a22.56,22.56,0,0,0,14.88,11.61A17.92,17.92,0,0,0,250.63,399.13Z" style="fill:#455a64"></path><path d="M287.07,350.16c0-5.47-3.61-11-10.85-15.13-14.48-8.36-38-8.36-52.44,0-7.24,4.18-10.86,9.66-10.86,15.13V368.4c0,5.48,3.63,11,10.86,15.14,14.48,8.36,38,8.36,52.44,0,7.24-4.18,10.85-9.66,10.85-15.14Z" style="fill:#37474f"></path><path d="M223.78,335c-7.24,4.18-10.86,9.66-10.85,15.13s3.62,11,10.85,15.14c14.48,8.36,38,8.36,52.44,0,7.24-4.18,10.86-9.66,10.86-15.14s-3.62-11-10.86-15.13C261.74,326.67,238.26,326.67,223.78,335Z" style="fill:#455a64"></path><path d="M284,339.66c0-5-3.32-10-10-13.87-13.27-7.66-34.79-7.66-48.06,0-6.63,3.83-9.95,8.85-9.95,13.87v8.85c0,5,3.32,10,9.95,13.87,13.27,7.66,34.79,7.66,48.06,0,6.63-3.83,10-8.85,10-13.87Z" style="fill:#263238"></path><path d="M226,325.79c-6.63,3.83-9.95,8.85-9.95,13.87s3.32,10,9.95,13.88c13.27,7.66,34.79,7.66,48.06,0,6.63-3.83,10-8.85,10-13.88s-3.32-10-10-13.87C260.76,318.13,239.24,318.13,226,325.79Z" style="fill:#455a64"></path><path d="M279.86,99.81c0-4.41-2.91-8.82-8.75-12.19-11.66-6.73-30.56-6.73-42.23,0-5.83,3.37-8.74,7.78-8.74,12.19V337.88c0,4.41,2.91,8.83,8.74,12.19,11.67,6.73,30.57,6.73,42.24,0,5.83-3.36,8.74-7.78,8.74-12.19Z" style="fill:#f5f5f5"></path><path d="M279.56,340.32c-2.29-9.51-17.65-16.92-29.56-24.41-12.9-8.11-29.86-20.85-29.86-39.42v34.16c0,18.57,17,31.31,29.86,39.42,2.38,1.5,4.89,3,7.42,4.49a39,39,0,0,0,13.7-4.49C275.87,347.33,278.68,343.89,279.56,340.32Z" style="fill:#455a64"></path><path d="M250,121.62c-10.12-6.37-22.75-15.59-27.71-28.24a11.21,11.21,0,0,0-2.15,6.43v16.55c0,18.57,17,31.31,29.86,39.42s29.86,16.12,29.86,26.83V148.45C279.86,137.74,262.9,129.74,250,121.62Z" style="fill:#22B357"></path><path d="M250,186.41c-10.12-6.37-22.75-15.59-27.71-28.24a11.21,11.21,0,0,0-2.15,6.42v16.55c0,18.58,17,31.31,29.86,39.43s29.86,16.12,29.86,26.82V213.24C279.86,202.53,262.9,194.52,250,186.41Z" style="fill:#22B357"></path><path d="M250,251.2c-10.12-6.37-22.75-15.59-27.71-28.24a11.18,11.18,0,0,0-2.15,6.42v16.55c0,18.57,17,31.31,29.86,39.43s29.86,16.12,29.86,26.82V278C279.86,267.32,262.9,259.31,250,251.2Z" style="fill:#22B357"></path><path d="M250,186.44c-12.9-8.11-29.86-20.85-29.86-39.42v34.15c0,18.58,17,31.31,29.86,39.43s29.86,16.12,29.86,26.82V213.27C279.86,202.56,262.9,194.55,250,186.44Z" style="fill:#455a64"></path><path d="M228.88,87.62c-5.83,3.37-8.74,7.78-8.74,12.19s2.91,8.83,8.75,12.19c11.66,6.74,30.56,6.74,42.23,0,5.83-3.36,8.74-7.78,8.74-12.19S277,91,271.11,87.62C259.45,80.89,240.55,80.89,228.88,87.62Z" style="fill:#e0e0e0"></path><path d="M220.14,337.87a11.37,11.37,0,0,0,2.35,6.72V93.09a11.37,11.37,0,0,0-2.35,6.72ZM277.5,93.09v251.5a11.26,11.26,0,0,0,2.37-6.72V99.81A11.26,11.26,0,0,0,277.5,93.09Z" style="fill:#e0e0e0"></path><path d="M228.88,350.07c11.67,6.73,30.57,6.73,42.24,0,5.83-3.36,8.74-7.78,8.74-12.19V99.81c0-4.41-2.91-8.82-8.75-12.19a34.1,34.1,0,0,0-6.68-2.89V316.51C264.43,340.37,243.72,355.22,228.88,350.07Z" style="opacity:0.1"></path><path d="M280,92.27c0-4.43-2.93-8.87-8.79-12.25-11.72-6.76-30.72-6.76-42.44,0C222.92,83.4,220,87.84,220,92.27v7.81c0,4.44,2.93,8.87,8.79,12.25,11.72,6.77,30.72,6.77,42.44,0,5.86-3.38,8.79-7.81,8.79-12.25Z" style="fill:#263238"></path><path d="M228.78,80C222.92,83.4,220,87.84,220,92.27s2.93,8.87,8.79,12.25c11.72,6.77,30.72,6.77,42.44,0,5.86-3.38,8.79-7.81,8.79-12.25S277.08,83.4,271.22,80C259.5,73.26,240.5,73.26,228.78,80Z" style="fill:#455a64"></path><path d="M287.07,70.09c0-5.47-3.61-11-10.85-15.13-14.48-8.36-38-8.36-52.44,0-7.24,4.18-10.86,9.65-10.86,15.13V88.33c0,5.48,3.63,11,10.86,15.14,14.48,8.35,38,8.35,52.44,0,7.24-4.18,10.85-9.66,10.85-15.14Z" style="fill:#37474f"></path><path d="M223.78,55c-7.24,4.18-10.86,9.65-10.85,15.13s3.62,11,10.85,15.14c14.48,8.36,38,8.36,52.44,0,7.24-4.18,10.86-9.66,10.86-15.14s-3.62-11-10.86-15.13C261.74,46.6,238.26,46.6,223.78,55Z" style="fill:#455a64"></path><path id="freepik--sphere-12--inject-89" d="M219.77,67.82c0,4.47,2.95,8.94,8.85,12.35,11.81,6.81,30.95,6.81,42.76,0,5.9-3.41,8.85-7.88,8.85-12.35a30.23,30.23,0,0,0-60.46,0Z" style="fill:#37474f"></path><path d="M222.49,75.07c6.94,4.12,19.46,7.48,31.35,2.8,16.8-6.62,19.86-32.32,1.31-39.83a30.23,30.23,0,0,1,25.08,29.78c0,4.47-3,8.94-8.85,12.35-11.81,6.81-30.95,6.81-42.76,0A21.25,21.25,0,0,1,222.49,75.07Z" style="fill:#263238"></path><path d="M250.63,42.28a9.64,9.64,0,0,1,6.68,4.95c1.34,2.49,1.05,6-1.12,7.77a10,10,0,0,1-4.11,1.76c-4.27,1.07-8.66,1.92-12.61,3.88-3.46,1.71-6.51,4.25-10.14,5.55a2.51,2.51,0,0,1-1.42.19,2.24,2.24,0,0,1-1.18-1c-2.19-3.25-1.07-7.7.8-11.14a22.58,22.58,0,0,1,14.88-11.62A17.78,17.78,0,0,1,250.63,42.28Z" style="fill:#455a64"></path><path d="M231.72,347.13h0a10.58,10.58,0,0,1-5.36-9.21V116.35a24.45,24.45,0,0,0,13.3,4.92V342.51A5.31,5.31,0,0,1,231.72,347.13Z" style="fill:#fff;opacity:0.15"></path></g></g><g id="freepik--chartacter-2--inject-89"><g id="freepik--Chartacter--inject-89"><g id="freepik--Bottom--inject-89"><path d="M356.73,382.61l-1.6-19.78L377.92,365s-.64,10.69-1.13,16.74c-.29,3.58,4.41,10.36,4.41,10.36s-10.88,5.39-16.57,3.24-8.54-9.3-8.41-10.84S356.73,382.61,356.73,382.61Z" style="fill:#ffa8a7"></path><path d="M410.86,414.92c.36,0,.87,3.69-1.11,5.23-2.28,1.78-8.94,4.67-17.69,3.52s-13.47-3.69-16.95-6.45-8.35-6.63-12.3-7.48c-3.68-.79-7.66-2.38-8.83-3.44s-1-5.75-1-5.75Z" style="fill:#263238"></path><path d="M356.72,382.57a1.38,1.38,0,0,0-1.33,1.08c-.29,1.29-.62,5-1.22,7.15-.84,2.94-1.45,9-1,11.37s6.44,4.13,10.26,5.52,8.4,4.32,12.35,7.39,12.71,6.55,18.42,6.57c6.76,0,14.39-1.92,16.17-4.8,2.19-3.56,3.81-7.71-6.16-12.11-1.89-.84-8.51-4.56-10.77-5.9-6.1-3.64-10.39-7-13.14-13.33a3.54,3.54,0,0,0-1.42-1.95,3.4,3.4,0,0,0-1.95-.19c-1.67.2-8.34,1-9.87,1.64-1.35.57-3.27,1.24-3.25,2.84a4.87,4.87,0,0,0,.36,1.62c.11.33.2.76-.11.95s-.67,0-.93-.25a24,24,0,0,1-2.67-3,9.77,9.77,0,0,0-1.57-1.51,18.15,18.15,0,0,1-1.71-1.05C356.59,384,356.75,383.32,356.72,382.57Z" style="fill:#455a64"></path><path d="M375.79,415.08c-1.73-1.35-3.58-2.66-5.43-3.83h0s11.72,6.76,16.51,3.8c3.09-1.91,1.66-4.28,1.59-5s10.82-5.95,13.81-6.25h0c.82.43,1.51.78,2,1,10,4.4,8.35,8.55,6.16,12.11-1.78,2.88-7.32,5.08-16.05,5C388.62,421.78,379.87,418.27,375.79,415.08Z" style="fill:#37474f"></path><path d="M387.66,407.81c6.21,2.37,3.54,3.42,1.79,3.63s-12.17-5.57-18.52-10.32c-6.62-4.95-10.76-10.33-13.22-12.15-.92-.68-1.9-1.51-2.78-2.29.18-1.27.32-2.42.46-3a1.38,1.38,0,0,1,1.33-1.08c0,.75-.13,1.45.47,2a18.15,18.15,0,0,0,1.71,1.05,9.77,9.77,0,0,1,1.57,1.51,24,24,0,0,0,2.67,3C368.51,396.61,381.46,405.44,387.66,407.81Z" style="fill:#37474f"></path><path d="M389,410.59a.69.69,0,0,1-.39-.14.54.54,0,0,1-.08-.8c1.78-2,10.17-6.61,14.75-6.1a.58.58,0,0,1,.54.63.6.6,0,0,1-.69.5c-4.27-.47-12.24,4.14-13.65,5.7A.64.64,0,0,1,389,410.59Z" style="fill:#263238"></path><path d="M383.62,407.43a.61.61,0,0,1-.39-.13.53.53,0,0,1-.08-.8c1.78-2,10.16-6.61,14.75-6.1a.57.57,0,0,1,.53.63.58.58,0,0,1-.68.5c-4.28-.46-12.24,4.14-13.66,5.7A.58.58,0,0,1,383.62,407.43Z" style="fill:#263238"></path><path d="M378.21,404.45a.71.71,0,0,1-.39-.14.55.55,0,0,1-.08-.8c1.79-2,10.17-6.62,14.75-6.1a.57.57,0,1,1-.14,1.13c-4.28-.47-12.25,4.14-13.66,5.7A.63.63,0,0,1,378.21,404.45Z" style="fill:#263238"></path><path d="M373.21,401.05a.71.71,0,0,1-.39-.14.55.55,0,0,1-.08-.8c1.78-2,10.19-6.61,14.75-6.1a.57.57,0,1,1-.14,1.13c-4.28-.46-12.25,4.14-13.66,5.7A.63.63,0,0,1,373.21,401.05Z" style="fill:#263238"></path><path d="M368.31,397.65a.75.75,0,0,1-.38-.13.55.55,0,0,1-.09-.8c2.45-2.8,11.22-6.66,15.8-6.15a.58.58,0,0,1,.54.64.62.62,0,0,1-.69.5c-4.12-.46-12.52,3.24-14.69,5.72A.63.63,0,0,1,368.31,397.65Z" style="fill:#263238"></path><path d="M323.48,391.19l4.29-19.57L303.6,369.3l0,18.71s-2.17,6.79-.57,9.17,17.68,4.25,19.08,2.56S323.48,391.19,323.48,391.19Z" style="fill:#ffa8a7"></path><path d="M323.38,433.34c-.45,6-1.55,9.94-4,13.29s-7.12,4.1-11.8,2.7-10.67-4.65-12-10-1-8.87.09-14.39Z" style="fill:#263238"></path><path d="M303.57,388c-1.93,0-1.09,8.16-2.26,16.2-1.26,8.61-4.26,12-5.38,19-1.28,8.06-.82,11.75,2.42,16.93s14.78,10.94,20.54,4.32c4.69-5.4,4.93-11.77,4.57-19.95-.38-8.46-.72-14.41-.28-20.77.42-6.08,2-11.54.3-12.35-.14.89-.27,2-.41,2.89-.11.66-.33,4-1.41,3.9a11,11,0,0,1,0-2.3,2.57,2.57,0,0,0-.51-2,9.16,9.16,0,0,0-3.17-1.43c-1.9-.48-5.28-1-7.21-1.33-1-.15-1.93-.27-2.89-.33a8.34,8.34,0,0,0-2.45.11,1.47,1.47,0,0,0-1.05.75,2.18,2.18,0,0,0-.11.92,5.8,5.8,0,0,1-.25,1.66c-.08.23-.27.51-.55.43a.51.51,0,0,1-.31-.52c0-1,.15-1.69.21-2.83,0-.52.13-1.24.15-1.77S303.53,388.53,303.57,388Z" style="fill:#455a64"></path><path d="M296.38,421c-.19,1.16-1.39,8.87,1,10.46,2.61,1.73,4.1-4.29,4.1-4.29s6.18-1.16,15.13,3c-.47,1.23.88,5.5,3.35,4.82s3.48-9.55,3.49-9.66c.32,7.84,0,14-4.59,19.24-5.76,6.62-17.31.87-20.54-4.32s-3.7-8.87-2.42-16.93C296.06,422.44,296.21,421.69,296.38,421Z" style="fill:#37474f"></path><path d="M302.21,427.71c-.06,3-3.38,1.69-3.5-2.48s2.57-13.86,2.6-21c.14-9.85.33-16.22,2.26-16.2,0,.1,0,.2,0,.3l-.28,4.1a16.74,16.74,0,0,0-.13,1.76c-.09,6,.33,17.67-.31,23.12A84.29,84.29,0,0,0,302.21,427.71Z" style="fill:#37474f"></path><path d="M315.6,429.94a83.33,83.33,0,0,0,1.91-10.21c.71-5.4,3.5-16.27,4.86-22.11a13,13,0,0,0,.7-3.3c.13-.82.26-1.85.38-2.7a1.16,1.16,0,0,0,0-.18c1.21.6,1,5.27.47,7.7s-1.17,5-1.81,8.53c-1.7,6.89-1.46,17.11-2.58,21.08S314.94,432.78,315.6,429.94Z" style="fill:#37474f"></path><path d="M316.82,430.35a.87.87,0,0,1-.26-.08,26.62,26.62,0,0,0-14.87-2.52.79.79,0,0,1-.87-.51.57.57,0,0,1,.51-.72,27.79,27.79,0,0,1,15.91,2.69.62.62,0,0,1,.29.87A.69.69,0,0,1,316.82,430.35Z" style="fill:#263238"></path><path d="M318.48,424.08a.9.9,0,0,1-.23-.08,33,33,0,0,0-16.66-2.8.8.8,0,0,1-.85-.54.58.58,0,0,1,.54-.71,34,34,0,0,1,17.59,3,.62.62,0,0,1,.33.86A.69.69,0,0,1,318.48,424.08Z" style="fill:#263238"></path><path d="M302.11,415.15a.77.77,0,0,1-.61-.47.58.58,0,0,1,.46-.76c8.68-1.88,17.21,2.63,17.57,2.83a.61.61,0,0,1,.29.87.75.75,0,0,1-1,.18c-.08,0-8.36-4.42-16.44-2.65A.76.76,0,0,1,302.11,415.15Z" style="fill:#263238"></path><path d="M302.65,409.46a.78.78,0,0,1-.6-.46.57.57,0,0,1,.43-.77c9.55-2.24,17.59,2.6,17.93,2.81a.6.6,0,0,1,.23.87.77.77,0,0,1-1,.14c-.07-.05-7.8-4.68-16.69-2.6A1.08,1.08,0,0,1,302.65,409.46Z" style="fill:#263238"></path><path d="M303.28,403.06a.78.78,0,0,1-.6-.45.57.57,0,0,1,.43-.77c8.95-2.23,17.68,2.77,18.05,3a.61.61,0,0,1,.25.87.73.73,0,0,1-1,.16c-.09-.05-8.53-4.88-16.84-2.81A.69.69,0,0,1,303.28,403.06Z" style="fill:#263238"></path><path d="M309,218.47c-4.06,42.52-4.42,92.25-4.42,92.25-.35,3.23-3.78,13.9-4.33,29.92a391.51,391.51,0,0,0,1.19,39.62,38.8,38.8,0,0,0,25.39,2.86s7.8-32.21,11.91-55.46c4.71-26.73,9.39-45.08,9.39-45.08l2.35,25.51s-1.32,15.34-.8,24.78c.64,11.58,5.81,40.84,5.81,40.84s12.57,7.76,22.46.35c0,0,6.09-53.46,6.87-68.15,1.61-30.28,2.14-57.78,1.84-87.88Z" style="fill:#37474f"></path><path d="M348.16,282.58l5.37-36.43s11.41-1.48,17.34-6.69c0,0-3.89,7-14.67,9.52l-5.3,27.49-.39,31.62Z" style="opacity:0.2"></path></g><g id="freepik--Top--inject-89"><g id="freepik--Arm--inject-89"><path d="M416,138.24c1.23-5.42-.84-6.53-1.13-12.13-.26-5.16,2.23-9.29,2.21-12.86s-1.42-5.61,1.32-4.89a5.77,5.77,0,0,1,3.69,3.72c-.09,0,15.23,8,16.93,9.69s1.55,2.06.87,5.26c-.61,2.9-3.84,9.34-6,13.7Z" style="fill:#ffa8a7"></path><path d="M418.39,108.36a5.82,5.82,0,0,1,3.7,3.72l.62.33,0,.27s-6.07,5.81-4.74,4.36a10.8,10.8,0,0,0,2.22-5c-.06-.48-1.4-1.78-3.46-3.34C416.89,108.22,417.32,108.08,418.39,108.36Z" style="fill:#f28f8f"></path><path d="M424.26,109.34c-3-2.78-9.19-8.13-12.22-9-6.55-2-8.67.65-8.67.65s3.93.74,10.13,4.75a55.45,55.45,0,0,1,8.94,6.82Z" style="fill:#22B357"></path><path d="M424.26,109.34c-3-2.78-9.19-8.13-12.22-9-6.55-2-8.67.65-8.67.65s3.93.74,10.13,4.75a55.45,55.45,0,0,1,8.94,6.82Z" style="fill:#fff;opacity:0.7000000000000001"></path><path d="M412,100.29c3,.92,9.26,6.27,12.22,9l-.64,1.12c-2.14-2.21-7.34-7.44-10.9-9.12s-6.88-2.16-9.35-.4C403.37,100.94,405.49,98.29,412,100.29Z" style="fill:#fff;opacity:0.5"></path><path d="M438.08,122.28a4.32,4.32,0,0,1-2.05,1.35,8.85,8.85,0,0,1-2.11.48,10.86,10.86,0,0,1-1.1,3,2.51,2.51,0,0,1-2.3,1.43c-.71-.1-.38-4.36-.38-4.36l-.31-.58a2.43,2.43,0,0,1-2,1.38c-1.58.2-1.84-.25-2.09-.7s.4-2.51.4-2.51-1.84,1.76-3.6,1.47-1.93-1.48-1.52-2a19.49,19.49,0,0,0,1.22-2.16,4.33,4.33,0,0,1-3.15,1.32c-1.69-.21-2.15-.85-1.23-1.8s3.35-4.21,3.35-4.21Z" style="fill:#f28f8f"></path><path d="M433.86,122.14c0-1.57,2-1.56,2-1.56l3.87,5c-.18.37.21.43.14,1.41a13.12,13.12,0,0,1-.62,2C436.79,126.92,433.89,123.51,433.86,122.14Z" style="fill:#f28f8f"></path><path d="M424.06,122.52a8.94,8.94,0,0,1,2.53,9.54,8.69,8.69,0,0,0-.9-11.2Z" style="fill:#f28f8f"></path><path d="M429.11,127.24c-.07.82.88,1,1.6.76a3.18,3.18,0,0,0,1.63-1.5,9.88,9.88,0,0,0,.67-1.57l.6-1.71a17.9,17.9,0,0,0,2.82-.4,6.88,6.88,0,0,0,1.65-.54s.9,4.79.9,4.79c.95-1.53,2.95-3.7,2.76-5.58s-.46-4.23-2.17-5.34c-.5-.32-2.06,0-2.06,0a15.88,15.88,0,0,0-1.58-3.45,2.32,2.32,0,0,0-2.6-.85c-.57-1.5-1.43-2.68-4.06-2-.14-.63-.31-.88-.89-1.06a3.83,3.83,0,0,0-1.81.06l-2.11.4a5.33,5.33,0,0,0-1.52.45c-1.35.73-1.94,2.41-2.69,3.65-.85,1.41-1.73,2.81-2.59,4.22-.28.47-.61,1.1-.23,1.58a2.59,2.59,0,0,0,1.61.61,4.4,4.4,0,0,0,2.79-1.13c-.5.92-1.37,1.71-1.32,2.46s1,1.17,1.65,1.29c1.18.22,2.63-.65,3.53-1.45-.52,1.28-1.08,2.38-.21,3,1.19.78,3.19-.1,3.8-1C429.08,124.09,429.25,125.41,429.11,127.24Z" style="fill:#ffa8a7"></path><path d="M429,123.19a3.74,3.74,0,0,1-2.75.89,2.28,2.28,0,0,0,1.57-.92,6.57,6.57,0,0,0,1-2.78c.27-1,1.68-1.52,3.12-2.13s4.66-1.44,4.66-1.44a56.17,56.17,0,0,0-6.08,3.17c-1.13.81-1,1.81-1.25,2.88Z" style="fill:#f28f8f;opacity:0.5"></path><path d="M425.69,120.86c-.9.8-2.35,1.67-3.53,1.45a3,3,0,0,1-.64-.22,3.73,3.73,0,0,0,2.25-.77,5.92,5.92,0,0,0,2-3.17,7.56,7.56,0,0,1,2.73-3.93,22.08,22.08,0,0,1,4.84-2.39,12.3,12.3,0,0,0-2.71,1.5,8,8,0,0,0-3.1,3.19C427.13,117.38,426.42,119.46,425.69,120.86Z" style="fill:#f28f8f;opacity:0.5"></path><path d="M421.83,118.56a4.4,4.4,0,0,1-2.79,1.13,3.17,3.17,0,0,1-1-.25c1.92.11,3-1.19,4-2.94s1.61-3.28,2.25-4.12a10.64,10.64,0,0,1,3.06-1.84s-2.2,1.54-2.69,2.95A25.33,25.33,0,0,1,421.83,118.56Z" style="fill:#f28f8f;opacity:0.5"></path><path d="M438.08,122.28a71.66,71.66,0,0,0,16.3,10.91c4.2,1.93,1.46,4.43-1.6,3.3-5.32-2-13.58-8.08-17.37-13.47A11.78,11.78,0,0,0,438.08,122.28Z" style="fill:#455a64"></path><path d="M373,128.36c7.46.95,10,4.74,21.64,16.59C405,155.48,407,157.61,407,157.61s6.81-14.13,9-19.37,20.92-4.64,17.87,2.49-6.32,27.33-11.5,39.85c-4.61,11.16-9.28,15.08-20.2,8.48-8.94-5.41-29-25.29-29-25.29Z" style="fill:#ffa8a7"></path><path d="M372.74,127.77c8.73,1.84,9.88,4.2,14.66,9s16.23,17.36,16.23,17.36-6.33.12-12.06,8.61c-5.25,7.78-5.66,13.54-5.66,13.54l-13.17-12.44Z" style="fill:#37474f"></path><path d="M407,157.61c-3.13,6.58-4.89,15.47-1.37,23-5.72-7.3-5.3-18.71-1.4-25.83Z" style="fill:#f28f8f"></path></g><path id="freepik--Chest--inject-89" d="M334,123.87c-4.25.88-23.77,5.19-29.66,7.79,0,0-2.05,21,2,39.69.92,4.3,2,15,2.51,24.09.73,12.3-.21,18.49-.38,29.12,0,0,18.6,11.4,48.59,9.14,23.55-1.78,29.59-11.22,29.59-11.22,5.69-33.15-2.68-42.64-3.46-59.77-1.05-23.36-5.31-31-10.4-34.94l-18.42-3.67Z" style="fill:#f0f0f0"></path><g id="freepik--Head--inject-89"><path d="M326.47,74.6s-3.73.28-6.17,4.86c-1.23,2.3-2.11,6.49,1.25,18.49a48.18,48.18,0,0,0,5.92,13.23,6.08,6.08,0,0,0,3.54,2.75l-.25-9.22-.35-6.42s5.32-4.7,5.78-9.32c.58-5.94-1.79-9.3-1.79-9.3Z" style="fill:#37474f"></path><path d="M325.18,74.91c.92-5.18,7.28-12.19,20.29-12.87A29.32,29.32,0,0,1,358.27,64a19.35,19.35,0,0,0,5.2,1.66,6.23,6.23,0,0,0,5.11-1.44,8.89,8.89,0,0,1-1.15,6.15,4.6,4.6,0,0,1,2.33,7.85,1,1,0,0,0-.34.51.93.93,0,0,0,.12.43,4.47,4.47,0,0,1-.7,4.5,5.32,5.32,0,0,1-3.27,2,20.14,20.14,0,0,1-2.82-.45c-1.78-.11-3.56-.18-5.34-.27l-12.76-.64-10.41-.52Z" style="fill:#37474f"></path><path d="M322.11,107.41c4.49,3.06,7.15-1.46,7.15-1.46l-.05,19.45c9.42,12.27,35.31,7.4,25-1.79l0-4.34a29.09,29.09,0,0,0,4.25-.4c4.34-.67,7-2.65,8.33-7.23a56.35,56.35,0,0,0,1.94-9.51c.3-4.81-.9-9.13-1.36-12.65-.37-2.83.15-5.46-.52-8.37-.5-2.23-1.49-4.66-3.59-5.67-5.21-2.51-10,1.11-17.28,3.86-3,1.15-10.3,1.65-12.22.77,2.53,2.72,2.51,11.33-1.22,14.82a8.08,8.08,0,0,1-1.87,2.37c-1.59,1.35-2.89-2.13-4.22-3.49s-6.35-2.56-8.51,1.91S318,104.58,322.11,107.41Z" style="fill:#ffa8a7"></path><path d="M354.2,119.27c-5.69,0-10.75-.71-14.11-2.09s-6.34-5.81-7.32-10.21c0,3.54,1.59,9.81,6.69,12.41s11,2.75,14.76,2.83Z" style="fill:#f28f8f"></path><path d="M334.7,91.34c-1.33,2.58.18,10.72,2.68,11.74s5.34-.61,10.79-2.14c3.5-1,7.09-1.77,11.72-.53,2.56.68,7.9,3,8.83,1.72,1.19,6,1.2,14.09-5.25,17.32-9.43,4.71-20.25,2.37-26.26-1a13,13,0,0,1-6.58-10.76c-.63-10.66-2.51-11.63-2.51-11.63Z" style="fill:#37474f"></path><path d="M359.52,106.23a5.33,5.33,0,0,0-.17-.66,5.23,5.23,0,0,0-1.18-2.17,4.68,4.68,0,0,0-2.38-1.21c-2.48-.54-5.09-.44-7,1.36a6.09,6.09,0,0,0-1.92,4.64c.05,1.08.86,1.45,1.88,1.73a3.31,3.31,0,0,0,3.34-.62,1.77,1.77,0,0,1,2.22-.23,11.82,11.82,0,0,0,1.09.81A3,3,0,0,0,357,110a3.91,3.91,0,0,0,1.44-.4,2.45,2.45,0,0,0,1.15-1.82A4.28,4.28,0,0,0,359.52,106.23Z" style="fill:#ffa8a7"></path><path d="M345.47,85.19l-4.81,2a2.63,2.63,0,0,1,1.44-3.41A2.57,2.57,0,0,1,345.47,85.19Z" style="fill:#37474f"></path><path d="M364.09,86.41l-4.89-1.89a2.55,2.55,0,0,1,3.33-1.5A2.68,2.68,0,0,1,364.09,86.41Z" style="fill:#37474f"></path><path d="M343,90.83a2.13,2.13,0,1,0,2-2.15A2.11,2.11,0,0,0,343,90.83Z" style="fill:#263238"></path><path d="M358.55,90.38a2.13,2.13,0,1,0,2.05-2.14A2.11,2.11,0,0,0,358.55,90.38Z" style="fill:#263238"></path><path d="M351.07,86.39l1.76,13.2L360,97A31.12,31.12,0,0,0,351.07,86.39Z" style="fill:#f28f8f"></path><path d="M350.47,103.67l5.54,1.78a2.88,2.88,0,0,1-3.63,1.91A3,3,0,0,1,350.47,103.67Z" style="fill:#b16668"></path><path d="M351.06,104.64a3.46,3.46,0,0,0-.71-.06,3,3,0,0,0,2,2.78,2.71,2.71,0,0,0,.93.12A2.61,2.61,0,0,0,351.06,104.64Z" style="fill:#f28f8f"></path></g><path d="M386.77,178.93c-2.12-8.79-1.79-16.91-4.41-26.64s-14.79-25.55-14.79-25.55l-7.51-1.59a91.3,91.3,0,0,1,8.41,16.18l-36.56,2.54-6.15-18.72-7.54,2a320.9,320.9,0,0,1,5.15,52.7c0,3-.09,6.25-.31,9.62-1.84,11.29-14.3,6.57-14.3,6.57l.3,10s1.88,2.23,6.31,2.89c2,4.85.49,26.07-.38,39.76s-.73,23.42-.73,33.38c54.14,10.33,77.29-3.07,77.29-3.07s.16-32.79-.35-58.76C390.72,196.25,388.89,187.72,386.77,178.93Z" style="fill:#455a64"></path><path d="M324.88,232.27s38.5,1.89,59.08.06l0,36.5s-23.81,6.49-60.7,1.14Z" style="fill:#37474f"></path><path d="M339.39,271.67l1,.06,1.71-38.85-1,0Z" style="fill:#263238"></path><path d="M318.32,277.16a154.14,154.14,0,0,0,26,2.26c19.94.19,38.43-2.64,44-4.92l-.46-1.13c-7.66,3.15-42.71,7.49-69.34,2.59Zm11.17-120.67,16-1-.52-6.09L329,150.3Z" style="fill:#37474f"></path><g id="freepik--Scissors--inject-89"><path d="M349.14,172a22,22,0,0,1-1,2.94,1.68,1.68,0,0,1-.76.89c-1.29.58-2.55,2.4-3.27,5-1.12,4-.55,8.36,1.25,9.71a2,2,0,0,0,1.07.4l1.62.08c1.58.08,3.32-1.95,4.22-5.21,1-3.61.65-7.49-.75-9.22a1.35,1.35,0,0,0-.12-.12,1.65,1.65,0,0,1-.23-1.58l.5-1.63-.92-1.19Zm-1.74,16.67c-1.1-1-1.39-4.13-.6-7a9.08,9.08,0,0,1,1.08-2.51A3.93,3.93,0,0,1,349,178c1.11,1,1.39,4.14.61,7a9.29,9.29,0,0,1-1.08,2.52A3.78,3.78,0,0,1,347.4,188.65Z" style="fill:#22B357"></path><path d="M349.14,172a22,22,0,0,1-1,2.94,1.68,1.68,0,0,1-.76.89c-1.29.58-2.55,2.4-3.27,5-1.12,4-.55,8.36,1.25,9.71a2,2,0,0,0,1.07.4l1.62.08c1.58.08,3.32-1.95,4.22-5.21,1-3.61.65-7.49-.75-9.22a1.35,1.35,0,0,0-.12-.12,1.65,1.65,0,0,1-.23-1.58l.5-1.63-.92-1.19Zm-1.74,16.67c-1.1-1-1.39-4.13-.6-7a9.08,9.08,0,0,1,1.08-2.51A3.93,3.93,0,0,1,349,178c1.11,1,1.39,4.14.61,7a9.29,9.29,0,0,1-1.08,2.52A3.78,3.78,0,0,1,347.4,188.65Z" style="opacity:0.4"></path><path d="M348.16,174.92a1.68,1.68,0,0,1-.76.89c-1.29.58-2.55,2.4-3.27,5-1.12,4-.55,8.36,1.25,9.71s4.17-.8,5.29-4.81c1-3.61.64-7.49-.76-9.22l-.11-.12a1.69,1.69,0,0,1-.24-1.58l.51-1.63-.93-1.19A22,22,0,0,1,348.16,174.92Zm.74,3c1.2.9,1.53,4.14.72,7.06a9.29,9.29,0,0,1-1.08,2.52c-.86,1.33-1.87,1.8-2.64,1.22-1.21-.9-1.54-4.13-.72-7.06a9,9,0,0,1,1.08-2.52C347.12,177.77,348.13,177.3,348.9,177.87Z" style="fill:#22B357"></path><path d="M350.07,173.17l-.51,1.63a1.69,1.69,0,0,0,.24,1.58l.11.12c1.4,1.73,1.76,5.61.76,9.22-.9,3.22-2.61,5.25-4.18,5.21l1.58.08c1.58.08,3.31-1.95,4.22-5.21,1-3.61.65-7.49-.75-9.22a1.35,1.35,0,0,0-.12-.12,1.65,1.65,0,0,1-.23-1.58l.5-1.63-.92-1.19-1.63-.08Z" style="fill:#22B357"></path><path d="M350.07,173.17l-.51,1.63a1.69,1.69,0,0,0,.24,1.58l.11.12c1.4,1.73,1.76,5.61.76,9.22-.9,3.22-2.61,5.25-4.18,5.21l1.58.08c1.58.08,3.31-1.95,4.22-5.21,1-3.61.65-7.49-.75-9.22a1.35,1.35,0,0,0-.12-.12,1.65,1.65,0,0,1-.23-1.58l.5-1.63-.92-1.19-1.63-.08Z" style="opacity:0.2"></path><polygon points="350.07 173.17 351.69 173.25 350.77 172.06 349.14 171.98 350.07 173.17" style="opacity:0.2"></polygon><path d="M363.87,135.36l-1.14-.05c-1.27,0-2.6,1.51-4.63,6.08a236.43,236.43,0,0,0-8.51,24.27c.6,1.55.47,3.86-.2,6.33l.92,1.19,1.14.06S361.74,143.42,363.87,135.36Z" style="fill:#22B357"></path><path d="M363.87,135.36l-1.14-.05c-1.27,0-2.6,1.51-4.63,6.08a236.43,236.43,0,0,0-8.51,24.27c.6,1.55.47,3.86-.2,6.33l.92,1.19,1.14.06S361.74,143.42,363.87,135.36Z" style="fill:#fff;opacity:0.4"></path><path d="M349.39,172c.67-2.47.8-4.78.2-6.33a236.43,236.43,0,0,1,8.51-24.27c2-4.57,3.36-6.12,4.63-6.08-2.12,8.06-12.42,37.87-12.42,37.87Z" style="fill:#22B357"></path><path d="M349.39,172c.67-2.47.8-4.78.2-6.33a236.43,236.43,0,0,1,8.51-24.27c2-4.57,3.36-6.12,4.63-6.08-2.12,8.06-12.42,37.87-12.42,37.87Z" style="fill:#fff;opacity:0.7000000000000001"></path><path d="M349.61,165.57c.28-1,.58-2,.89-3l3,1.22c-.59,1.74-1.13,3.33-1.6,4.69l-1.37.05a1.07,1.07,0,0,0-.58-.73,6.36,6.36,0,0,0-.37-2.11Z" style="opacity:0.1"></path><path d="M341.77,162.67a4.53,4.53,0,0,0-3,1.31,14.55,14.55,0,0,0-4.5,10.56c.1,2.75,1,4,2.36,4l1.63.08c1.25.07,2.85-.89,4.38-2.55a16,16,0,0,0,3-4.77,4.45,4.45,0,0,1,.93-1.52l2-2.08L348,166l-1.62-.08-.09.08a.84.84,0,0,0,0-.12h0c-.48-1.89-1.5-3-2.87-3.11Zm1.81,4c.35,1.39-.28,3.57-1.66,5.7a15.14,15.14,0,0,1-1.51,2,7.48,7.48,0,0,1-2.77,2h0c-.23-.19-.55-.61-.6-2a12.35,12.35,0,0,1,2-6.44,9.31,9.31,0,0,1,1.8-2.09,5.1,5.1,0,0,1,1.59-1A2.74,2.74,0,0,1,343.58,166.68Z" style="fill:#22B357"></path><path d="M341.77,162.67a4.53,4.53,0,0,0-3,1.31,14.55,14.55,0,0,0-4.5,10.56c.1,2.75,1,4,2.36,4l1.63.08c1.25.07,2.85-.89,4.38-2.55a16,16,0,0,0,3-4.77,4.45,4.45,0,0,1,.93-1.52l2-2.08L348,166l-1.62-.08-.09.08a.84.84,0,0,0,0-.12h0c-.48-1.89-1.5-3-2.87-3.11Zm1.81,4c.35,1.39-.28,3.57-1.66,5.7a15.14,15.14,0,0,1-1.51,2,7.48,7.48,0,0,1-2.77,2h0c-.23-.19-.55-.61-.6-2a12.35,12.35,0,0,1,2-6.44,9.31,9.31,0,0,1,1.8-2.09,5.1,5.1,0,0,1,1.59-1A2.74,2.74,0,0,1,343.58,166.68Z" style="opacity:0.2"></path><polygon points="346.98 167.65 348.6 167.73 348.02 166 346.4 165.91 346.98 167.65" style="opacity:0.2"></polygon><path d="M344.65,165.78h0c.19.75.7,1.07,1.14.67l.52-.47s0-.08,0-.12h0c-.48-1.89-1.5-3-2.87-3.11l-1.62-.08C343.15,162.74,344.16,163.89,344.65,165.78Zm-9.23,8.53c.05,1.38.36,1.8.59,2a1.61,1.61,0,0,0,1.63.08h0c-.23-.2-.55-.61-.6-2a12.42,12.42,0,0,1,2-6.44,9.6,9.6,0,0,1,1.81-2.09,5.1,5.1,0,0,1,1.59-1,1.42,1.42,0,0,0-.25-.12c-.82-.29-1.84.05-3,1a9.57,9.57,0,0,0-1.8,2.09A12.42,12.42,0,0,0,335.42,174.31Z" style="fill:#22B357"></path><path d="M344.65,165.78h0c.19.75.7,1.07,1.14.67l.52-.47s0-.08,0-.12h0c-.48-1.89-1.5-3-2.87-3.11l-1.62-.08C343.15,162.74,344.16,163.89,344.65,165.78Zm-9.23,8.53c.05,1.38.36,1.8.59,2a1.61,1.61,0,0,0,1.63.08h0c-.23-.2-.55-.61-.6-2a12.42,12.42,0,0,1,2-6.44,9.6,9.6,0,0,1,1.81-2.09,5.1,5.1,0,0,1,1.59-1,1.42,1.42,0,0,0-.25-.12c-.82-.29-1.84.05-3,1a9.57,9.57,0,0,0-1.8,2.09A12.42,12.42,0,0,0,335.42,174.31Z" style="opacity:0.4"></path><path d="M341,176a15.75,15.75,0,0,0,3-4.77,4.79,4.79,0,0,1,.93-1.52l2-2.08-.58-1.74-.61.55c-.44.4-1,.08-1.14-.67h0c-.8-3.11-3-4.22-5.9-1.8a14.55,14.55,0,0,0-4.5,10.56C334.43,179.9,337.86,179.42,341,176Zm-5.57-1.71a12.42,12.42,0,0,1,2-6.44,9.57,9.57,0,0,1,1.8-2.09c1.13-.94,2.15-1.29,3-1a2.54,2.54,0,0,1,1.4,1.9c.35,1.39-.28,3.57-1.66,5.7a15.14,15.14,0,0,1-1.51,2c-1.73,1.88-3.53,2.69-4.39,2C335.78,176.1,335.47,175.69,335.42,174.31Z" style="fill:#22B357"></path><path d="M368.61,145.2c-4.49,3.38-20.61,19.32-22,20.72l.58,1.71,1.13.06a4.44,4.44,0,0,1,1.72-.89,1.91,1.91,0,0,1,.81.6l1.14,0a114.87,114.87,0,0,0,14.19-14.29c2.67-3.44,3.6-5.7,3.6-7.9Z" style="fill:#22B357"></path><path d="M368.61,145.2c-4.49,3.38-20.61,19.32-22,20.72l.58,1.71,1.13.06a4.44,4.44,0,0,1,1.72-.89,1.91,1.91,0,0,1,.81.6l1.14,0a114.87,114.87,0,0,0,14.19-14.29c2.67-3.44,3.6-5.7,3.6-7.9Z" style="fill:#fff;opacity:0.4"></path><path d="M346.58,165.92l.58,1.71c1.44-1.12,2.78-1.3,3.66-.23A114.86,114.86,0,0,0,365,153.11c2.52-3.24,3.48-5.44,3.59-7.51,0-.13,0-.27,0-.4-4.49,3.38-20.61,19.32-22,20.72Z" style="fill:#22B357"></path><g style="opacity:0.8"><path d="M346.58,165.92l.58,1.71c1.44-1.12,2.78-1.3,3.66-.23A114.86,114.86,0,0,0,365,153.11c2.52-3.24,3.48-5.44,3.59-7.51,0-.13,0-.27,0-.4-4.49,3.38-20.61,19.32-22,20.72Z" style="fill:#fff"></path></g><path d="M368.61,145.2c0,.13,0,.27,0,.4a8.94,8.94,0,0,1-1,3.5c.79-2.48.24-2.67-2.31-.3s-17.22,15.63-17.23,15.64C352.5,160.09,364.78,148.08,368.61,145.2Z" style="fill:#22B357;opacity:0.2"></path><path d="M351.6,162.81a.48.48,0,0,0-.42.27,1.6,1.6,0,0,0-.08,1.43.53.53,0,0,0,.4.32l.4,0a.54.54,0,0,0,.43-.28,1.57,1.57,0,0,0,.07-1.43.48.48,0,0,0-.4-.31Z" style="fill:#263238"></path><path d="M351.93,164.55a1.57,1.57,0,0,0,.07-1.43.43.43,0,0,0-.82,0,1.6,1.6,0,0,0-.08,1.43C351.31,164.92,351.68,164.93,351.93,164.55Z" style="fill:#37474f"></path></g><g id="freepik--arm--inject-89"><path d="M347.25,170.33c1.91-.75,6.19-2,7.92-3.15,2.25-1.48,1.92-4.1.28-3.9-2.59.31-9.49,2.21-11.42,2.51s-4.1,1.19-8.48,3.68l5.77,5.43S345.35,171.09,347.25,170.33Z" style="fill:#f28f8f"></path><path d="M324.74,196.83c-13.66,4.67-26.19,11.35-38.5,10.87-12-.47-14.95-4.58-11.18-18.79,2.38-9,11.31-35.09,15.77-44.1,4.73-9.57,9.58-13.56,21.51-15,3.72,7.29,2.41,25.36-1,33.46-3.16,7.57-7.33,17.84-7.33,17.84s15.35-2.29,19.12-3.45,7.78-5,10.29-7.3,6.92-.63,8.57-.17c5.42,1.53,6.49,2.52,7.57,3.41a2.49,2.49,0,0,1,.8,2.28c1.45.37,3.65.6,3.63,3a6.77,6.77,0,0,1-.15,1.94,1.59,1.59,0,0,1,.88.67c1,1.57-1.66,6.2-3.14,7.23-1,.72-2.39.66-4.1.2-1.46-.39-.58-1.81-.58-1.81l-2.1-.14c-4.89,2.63-6.06,7.65-12.17,8.3A27.19,27.19,0,0,0,324.74,196.83Z" style="fill:#ffa8a7"></path><path d="M350.36,175,344,173.73l6.39,2.15A2.6,2.6,0,0,0,350.36,175Zm3.61,5-7.54-1.05,7.43,1.92A3.84,3.84,0,0,0,354,180Zm-3.76,4.8a25.79,25.79,0,0,1-2.65-.15s-.13.53-1.12,1.33a15.23,15.23,0,0,1-1.62,1l2.1.14a3.28,3.28,0,0,1,2.29-1,1.53,1.53,0,0,1,1,.31,2.52,2.52,0,0,1,.67.92,2.06,2.06,0,0,0-.54-1.07,1.49,1.49,0,0,0-.74-.4l.54-.87a5.26,5.26,0,0,0,1.19-.26,2.35,2.35,0,0,0,1.12-.75,2.78,2.78,0,0,1-1.18.55A7.65,7.65,0,0,1,350.21,184.79Z" style="fill:#f28f8f"></path><path d="M290.45,187.66c1.67-2.79,8-5.84,13.58-6.55l1.07-2.63C295.25,179.83,292.05,183.1,290.45,187.66Z" style="fill:#f28f8f"></path><path d="M312.88,128.89c-13.95,2.19-17.35,4.86-21.66,13.57-4.24,8.56-11.86,31.09-11.86,31.09s1.84,3.58,11.92,5.38,14.74-.24,14.74-.24,4.45-10.73,7.71-19.13S315.85,132.06,312.88,128.89Z" style="fill:#37474f"></path></g></g></g></g><g id="freepik--character-1--inject-89"><g id="freepik--chartacter--inject-89"><g id="freepik--bottom--inject-89"><path d="M145.61,383.11l1.56-19.3-22.24,2.06s.63,10.44,1.1,16.34c.28,3.5-4.31,10.12-4.31,10.12s10.62,5.26,16.18,3.16,8.33-9.07,8.21-10.58S145.61,383.11,145.61,383.11Z" style="fill:#b16668"></path><path d="M92.77,414.65c-.35,0-.84,3.6,1.08,5.1,2.23,1.74,8.74,4.56,17.28,3.45s13.15-3.61,16.54-6.3,8.15-6.48,12-7.31c3.59-.77,7.47-2.31,8.61-3.35s.93-5.61.93-5.61Z" style="fill:#263238"></path><path d="M145.62,383.08a1.35,1.35,0,0,1,1.3,1.05c.28,1.26.6,4.92,1.19,7,.82,2.86,1.41,8.75,1,11.09s-6.29,4-10,5.4a48.15,48.15,0,0,0-12,7.21c-4,3.11-12.41,6.39-18,6.41-6.6,0-14-1.87-15.78-4.68-2.15-3.48-3.73-7.53,6-11.83,1.84-.81,8.3-4.44,10.51-5.76,6-3.55,10.14-6.8,12.83-13A3.42,3.42,0,0,1,124,384a3.31,3.31,0,0,1,1.9-.18c1.64.19,8.14.95,9.64,1.59,1.32.57,3.19,1.22,3.17,2.78a4.58,4.58,0,0,1-.35,1.58c-.11.32-.2.74.1.93s.66,0,.92-.25a24.28,24.28,0,0,0,2.6-2.95,9.74,9.74,0,0,1,1.53-1.48,17.27,17.27,0,0,0,1.67-1C145.75,384.49,145.6,383.81,145.62,383.08Z" style="fill:#455a64"></path><path d="M127,414.81c1.69-1.32,3.49-2.59,5.29-3.74h0s-11.43,6.59-16.11,3.71c-3-1.86-1.62-4.18-1.55-4.91s-10.57-5.81-13.48-6.1h0c-.8.42-1.48.76-1.9.95-9.74,4.3-8.16,8.35-6,11.83,1.73,2.81,7.13,5,15.66,4.87C114.49,421.35,123,417.92,127,414.81Z" style="fill:#37474f"></path><path d="M115.42,407.71c-6.06,2.31-3.45,3.33-1.75,3.54s11.88-5.43,18.08-10.07c6.46-4.83,10.51-10.08,12.91-11.86.89-.66,1.85-1.47,2.71-2.23-.18-1.24-.32-2.37-.45-3a1.35,1.35,0,0,0-1.3-1.05c0,.73.13,1.41-.46,2a17.27,17.27,0,0,1-1.67,1,9.74,9.74,0,0,0-1.53,1.48,24.28,24.28,0,0,1-2.6,2.95C134.11,396.78,121.48,405.39,115.42,407.71Z" style="fill:#37474f"></path><path d="M114.1,410.42a.62.62,0,0,0,.38-.13.52.52,0,0,0,.07-.78c-1.74-1.93-9.92-6.46-14.39-6a.56.56,0,1,0,.14,1.11c4.17-.46,12,4,13.33,5.56A.63.63,0,0,0,114.1,410.42Z" style="fill:#263238"></path><path d="M119.37,407.34a.6.6,0,0,0,.38-.13.52.52,0,0,0,.07-.78c-1.73-1.93-9.92-6.45-14.39-5.95a.57.57,0,0,0-.53.62.59.59,0,0,0,.67.48c4.18-.45,12,4,13.33,5.56A.57.57,0,0,0,119.37,407.34Z" style="fill:#263238"></path><path d="M124.64,404.43a.65.65,0,0,0,.38-.13.53.53,0,0,0,.08-.79c-1.74-1.92-9.93-6.45-14.4-5.95a.57.57,0,0,0-.52.62.59.59,0,0,0,.67.49c4.17-.46,12,4,13.33,5.56A.61.61,0,0,0,124.64,404.43Z" style="fill:#263238"></path><path d="M129.52,401.11a.65.65,0,0,0,.38-.13.53.53,0,0,0,.08-.79c-1.74-1.92-9.94-6.45-14.39-5.95a.57.57,0,0,0-.53.62.59.59,0,0,0,.67.49c4.17-.46,12,4,13.33,5.56A.63.63,0,0,0,129.52,401.11Z" style="fill:#263238"></path><path d="M134.31,397.79a.63.63,0,0,0,.37-.12.54.54,0,0,0,.09-.79c-2.39-2.73-11-6.49-15.42-6a.56.56,0,0,0-.53.61.59.59,0,0,0,.67.49c4-.45,12.22,3.17,14.34,5.59A.63.63,0,0,0,134.31,397.79Z" style="fill:#263238"></path><path d="M178.07,391.49l-4.19-19.1,23.59-2.27,0,18.26s2.12,6.64.56,8.95-17.26,4.15-18.63,2.51S178.07,391.49,178.07,391.49Z" style="fill:#b16668"></path><path d="M178.17,432.63c.43,5.87,1.51,9.7,3.93,13s7,4,11.52,2.64,10.41-4.54,11.68-9.73,1-8.66-.09-14.05Z" style="fill:#263238"></path><path d="M197.5,388.38c1.89,0,1.07,8,2.21,15.81,1.23,8.41,4.16,11.7,5.25,18.59,1.25,7.87.8,11.47-2.36,16.53s-14.43,10.67-20,4.21c-4.58-5.26-4.82-11.48-4.46-19.47.37-8.25.7-14.06.27-20.27-.41-5.94-1.93-11.27-.29-12.06.13.87.26,2,.4,2.82.11.65.32,3.87,1.38,3.81a11.18,11.18,0,0,0,0-2.24,2.55,2.55,0,0,1,.5-2,8.78,8.78,0,0,1,3.09-1.39c1.86-.47,5.16-1,7-1.3q1.41-.22,2.82-.33a8.35,8.35,0,0,1,2.4.12,1.45,1.45,0,0,1,1,.72,2.14,2.14,0,0,1,.11.91,5.47,5.47,0,0,0,.25,1.61c.07.23.25.5.52.43a.51.51,0,0,0,.31-.51c0-1-.15-1.65-.21-2.76,0-.52-.13-1.21-.14-1.73S197.54,388.89,197.5,388.38Z" style="fill:#455a64"></path><path d="M204.52,420.55c.19,1.13,1.36,8.65-1,10.21-2.56,1.68-4-4.19-4-4.19s-6-1.14-14.76,2.9c.46,1.2-.87,5.37-3.27,4.7s-3.4-9.32-3.42-9.43c-.31,7.65,0,13.67,4.49,18.78,5.62,6.46,16.89.86,20-4.21s3.61-8.66,2.36-16.53C204.83,422,204.68,421.26,204.52,420.55Z" style="fill:#37474f"></path><path d="M198.83,427.14c.06,2.87,3.3,1.65,3.41-2.43s-2.5-13.52-2.53-20.52c-.14-9.6-.32-15.83-2.21-15.81,0,.1,0,.2,0,.29l.28,4a16,16,0,0,1,.12,1.72c.09,5.87-.32,17.25.3,22.57A81.6,81.6,0,0,1,198.83,427.14Z" style="fill:#37474f"></path><path d="M185.76,429.31a81.14,81.14,0,0,1-1.87-10c-.69-5.27-3.41-15.88-4.74-21.58a12.7,12.7,0,0,1-.68-3.23c-.13-.79-.25-1.8-.38-2.63l0-.18c-1.18.59-1,5.14-.47,7.52s1.15,4.92,1.77,8.32c1.67,6.73,1.43,16.7,2.53,20.58S186.4,432.09,185.76,429.31Z" style="fill:#37474f"></path><path d="M184.56,429.72a1.14,1.14,0,0,0,.26-.09,26,26,0,0,1,14.51-2.45.79.79,0,0,0,.86-.5.57.57,0,0,0-.51-.71,27.2,27.2,0,0,0-15.52,2.63.6.6,0,0,0-.29.84A.69.69,0,0,0,184.56,429.72Z" style="fill:#263238"></path><path d="M182.94,423.59a1.09,1.09,0,0,0,.24-.07,32,32,0,0,1,16.25-2.74.77.77,0,0,0,.83-.53.57.57,0,0,0-.53-.69,33.34,33.34,0,0,0-17.17,2.9.61.61,0,0,0-.32.84A.66.66,0,0,0,182.94,423.59Z" style="fill:#263238"></path><path d="M198.93,414.88a.78.78,0,0,0,.59-.46.56.56,0,0,0-.45-.74c-8.47-1.84-16.79,2.57-17.14,2.76a.59.59,0,0,0-.29.84.73.73,0,0,0,.94.19c.08-.05,8.17-4.32,16-2.6A1,1,0,0,0,198.93,414.88Z" style="fill:#263238"></path><path d="M198.4,409.32a.76.76,0,0,0,.59-.45.56.56,0,0,0-.43-.75c-9.32-2.18-17.17,2.54-17.49,2.74a.59.59,0,0,0-.23.86.74.74,0,0,0,1,.13c.07-.05,7.62-4.57,16.3-2.54A.76.76,0,0,0,198.4,409.32Z" style="fill:#263238"></path><path d="M197.78,403.08a.76.76,0,0,0,.58-.44.55.55,0,0,0-.41-.76c-8.73-2.17-17.26,2.71-17.62,2.92a.6.6,0,0,0-.25.85.73.73,0,0,0,1,.15c.08,0,8.32-4.75,16.43-2.74A.81.81,0,0,0,197.78,403.08Z" style="fill:#263238"></path><path d="M192.17,222.9c4,41.5,4.31,90,4.31,90,.35,3.15,3.7,13.57,4.23,29.2a384,384,0,0,1-1.16,38.67,37.81,37.81,0,0,1-24.79,2.8s-7.61-31.44-11.61-54.14c-4.61-26.09-9.17-44-9.17-44l-2.29,24.91s1.28,15,.77,24.18c-.62,11.31-5.67,39.86-5.67,39.86s-12.26,7.58-21.92.35c0,0-6-52.19-6.71-66.53-1.57-29.55-2.09-56.39-1.79-85.77Z" style="fill:#37474f"></path><path d="M154,285.47l-5.24-35.56s-11.15-1.44-16.93-6.53c0,0,3.79,6.8,14.32,9.3l5.17,26.83.39,30.87Z" style="opacity:0.2"></path></g><g id="freepik--top--inject-89"><g id="freepik--arm--inject-89"><path d="M67,143c.56.37,1.11.76,1.63,1.18A7.42,7.42,0,0,1,70.32,147l17.45-2.43c-.83.12,0-6,.2-6.65.64-2.54,1.52-5.06,1.53-7.7A43.2,43.2,0,0,0,89,124.8a55.34,55.34,0,0,1-.44-8c0-1-.09-2.33-1-2.73a2.07,2.07,0,0,0-1.69.2,7,7,0,0,0-3.33,4.5c-.41,1.49-.2,3.12-.78,4.57-1,2.6-3.91,1.68-5.81,1.12-2.87-.84-5.71-1.35-8.4-2.79a12.35,12.35,0,0,1-5.84-6c-.42-1.09-.92-2.49-2.09-2.54s-1.83,1.46-2.76,2.26a2.18,2.18,0,0,0-2.6.47,5.28,5.28,0,0,0-1.2,2.56,20.38,20.38,0,0,0,7.18,20.32,65.36,65.36,0,0,0,5.6,3.56Z" style="fill:#b16668"></path><g id="freepik--Bowl--inject-89"><path d="M87.25,123.29a17.84,17.84,0,1,1-35.61,2.18C51,115.64,86.65,113.45,87.25,123.29Z" style="fill:#22B357"></path><path d="M87.25,123.29a17.84,17.84,0,1,1-35.61,2.18C51,115.64,86.65,113.45,87.25,123.29Z" style="opacity:0.30000000000000004"></path><path d="M56.46,117.91c6.68-4.43,17.91-5.12,25.08-1.54s7.57,10.06.89,14.48S64.52,136,57.35,132.39,49.78,122.33,56.46,117.91Z" style="fill:#22B357"></path><path d="M70,133.59a24.49,24.49,0,0,1-12.2-2.12c-3.13-1.56-4.93-3.71-5.07-6.06s1.37-4.71,4.29-6.64a24.4,24.4,0,0,1,11.85-3.6,24.49,24.49,0,0,1,12.2,2.12c3.13,1.56,4.93,3.71,5.08,6.06s-1.38,4.71-4.3,6.64A24.51,24.51,0,0,1,70,133.59Z" style="fill:#22B357"></path><path d="M70,133.59a24.49,24.49,0,0,1-12.2-2.12c-3.13-1.56-4.93-3.71-5.07-6.06s1.37-4.71,4.29-6.64a24.4,24.4,0,0,1,11.85-3.6,24.49,24.49,0,0,1,12.2,2.12c3.13,1.56,4.93,3.71,5.08,6.06s-1.38,4.71-4.3,6.64A24.51,24.51,0,0,1,70,133.59Z" style="opacity:0.30000000000000004"></path><path d="M84.72,126.42a5.91,5.91,0,0,1,0,.94.08.08,0,0,1,0,.07,3.87,3.87,0,0,1-.33.4A12.06,12.06,0,0,1,81.87,130a13.23,13.23,0,0,1-1.51.88c-.26.15-.55.3-.83.43a18.74,18.74,0,0,1-2,.79,7.77,7.77,0,0,1-.92.33,22,22,0,0,0-1-6.59c-1.55-4.88-2.7-10.09-2.7-10.09A24.76,24.76,0,0,1,81.46,120a8.91,8.91,0,0,1,3.18,5.81v0s0,0,0,0A1.86,1.86,0,0,1,84.72,126.42Z" style="fill:#f0f0f0"></path><path d="M67.29,127.45c-.34,1.09-2.57,3.45-5,4.92a8.65,8.65,0,0,1-.8.43,12.27,12.27,0,0,1-1.89-.6h0a5.48,5.48,0,0,1-.71-.27l-.07,0c-.32-.14-.64-.27-1-.43,0,0,0,0,0,0a11,11,0,0,1-3.56-2.63,6.53,6.53,0,0,1,.11-2.51c0-.16.1-.28.13-.42v0c.63-2.12,1.92-3.34,4.39-5.17s6.62-3.1,7.72-4.8C66.66,116.42,67.83,125.65,67.29,127.45Z" style="fill:#e0e0e0"></path><path d="M73.75,129.09a8.28,8.28,0,0,1-2.64,4.42c-.35,0-.73.07-1.09.09a30.14,30.14,0,0,1-4.26,0h0a23.1,23.1,0,0,1-4.26-.75,12.27,12.27,0,0,1-1.89-.6h0a5.48,5.48,0,0,1-.71-.27l-.07,0c-.32-.14-.64-.27-1-.43,0,0,0,0,0,0a3.66,3.66,0,0,1,.28-.56s0-.07.06-.09a8.5,8.5,0,0,1,.58-.75,10.68,10.68,0,0,1,1.75-1.54l1.2-.8a6.81,6.81,0,0,0,.63-.41,5.25,5.25,0,0,0,.53-.4c.17-.14.34-.26.51-.41s.32-.29.47-.43a9,9,0,0,0,2.76-8,8.46,8.46,0,0,1,0-2.15,3.73,3.73,0,0,1,.08-.5,5.81,5.81,0,0,1,1.63-2.69l0,0a8.12,8.12,0,0,1,2.11,2.38C72.82,118.69,74.63,124.78,73.75,129.09Z" style="fill:#f0f0f0"></path><path d="M80,127.16v0h0a12.91,12.91,0,0,1-.44,4.1,18.74,18.74,0,0,1-2,.79,7.77,7.77,0,0,1-.92.33,27.87,27.87,0,0,1-5.51,1.1c-.35,0-.73.07-1.09.09a30.14,30.14,0,0,1-4.26,0,.08.08,0,0,1,0-.05,1,1,0,0,1,.17-.19,1.15,1.15,0,0,1,.14-.19.71.71,0,0,1,.13-.12,3.25,3.25,0,0,1,.4-.36l.11-.09c0-.05,0-.05.06-.08a.37.37,0,0,0,.11-.05l.81-.61h0c.53-.39,1-.73,1.35-1l.19-.19a3.43,3.43,0,0,0,.33-.33l0,0a3,3,0,0,0,.29-.33c.14-.19.29-.4.41-.59a1,1,0,0,0,.21-.28s0,0,.06-.07l.31-.49a5.21,5.21,0,0,0,.3-.56,7.38,7.38,0,0,0,.58-1.49c0-.13.05-.25.07-.32v0a7.65,7.65,0,0,0,.18-1.38c.09-3.27-2.63-6.44-3.52-9.5a5.41,5.41,0,0,1-.21-2.45,4.21,4.21,0,0,1,.83-2.09,7.49,7.49,0,0,0,3,4.49h0c.24.19.47.4.73.59s.87.66,1.39,1A13.73,13.73,0,0,1,80,127.16Z" style="fill:#fafafa"></path><path d="M57.79,131.44a11,11,0,0,1-3.56-2.63,6.53,6.53,0,0,1,.11-2.51c0-.16.1-.28.13-.42-.21,1.27.13,2.12,1.94,2.37a12.45,12.45,0,0,0,4.79-.76,11,11,0,0,0,2.6-1.44c-.15.14-.3.29-.47.43s-.34.27-.51.41a5.25,5.25,0,0,1-.53.4,6.81,6.81,0,0,1-.63.41l-1.2.8A10.68,10.68,0,0,0,58.71,130a8.5,8.5,0,0,0-.58.75s0,.07-.06.09a1.3,1.3,0,0,0,.71,1c-.32-.14-.64-.27-1-.43C57.82,131.46,57.79,131.46,57.79,131.44Z" style="opacity:0.05"></path><path d="M71.89,126.07v0c0,.07,0,.19-.07.32a7.38,7.38,0,0,1-.58,1.49,5.21,5.21,0,0,1-.3.56l-.31.49s0,0-.06.07a1,1,0,0,1-.21.28c-.12.19-.27.4-.41.59a3,3,0,0,1-.29.33l0,0a3.43,3.43,0,0,1-.33.33l-.19.19c-.32.27-.82.61-1.35,1h0l-.81.61a.37.37,0,0,1-.11.05s0,0-.06.08l-.11.09a3.25,3.25,0,0,0-.4.36.71.71,0,0,0-.13.12,1.15,1.15,0,0,0-.14.19,1,1,0,0,0-.17.19.08.08,0,0,0,0,.05h0a23.1,23.1,0,0,1-4.26-.75,12.27,12.27,0,0,1-1.89-.6,2.83,2.83,0,0,0,.68.11,19.69,19.69,0,0,0,2,.06,10.32,10.32,0,0,0,4.41-1.14C68.87,130.13,71.19,128.28,71.89,126.07Z" style="opacity:0.05"></path><path d="M80,127.18a12,12,0,0,1,.36,3.68c-.26.15-.55.3-.83.43a18.74,18.74,0,0,1-2,.79A7.93,7.93,0,0,0,80,127.19Z" style="opacity:0.05"></path><path d="M84.72,126.42a5.91,5.91,0,0,1,0,.94v.07h0a3.87,3.87,0,0,1-.33.4,6.65,6.65,0,0,0,.26-1.92s0,0,0,0v0s0,0,0,0C84.69,126,84.71,126.22,84.72,126.42Z" style="opacity:0.05"></path><path d="M84.59,127.58l.13-.18s0,0,0,0a5.91,5.91,0,0,0,0-.94,2.44,2.44,0,0,0-.07-.46,11.94,11.94,0,0,1-2.88,2.62,24.51,24.51,0,0,1-11.85,3.59,24.38,24.38,0,0,1-12.2-2.12,11.41,11.41,0,0,1-3.54-2.64,6.63,6.63,0,0,0,0,1.4l.26.27c.14.15.27.29.42.43s.37.32.56.47l.26.21c.2.15.41.29.63.43a13.77,13.77,0,0,0,1.43.82s0,0,0,0l.09,0a18.2,18.2,0,0,0,2,.79,13.14,13.14,0,0,0,1.3.41c.53.15,1.07.28,1.62.4.25.05.49.12.75.16a25.9,25.9,0,0,0,2.7.31l.88,0a27.5,27.5,0,0,0,2.87,0h0c.84,0,1.64-.17,2.45-.29.39-.06.8-.1,1.18-.18.73-.14,1.44-.32,2.14-.51.26-.07.54-.12.8-.2a23.26,23.26,0,0,0,2.3-.87c.17-.08.36-.14.53-.21A18.48,18.48,0,0,0,81.86,130l.29-.21c.31-.21.6-.43.88-.65l.47-.42a7.85,7.85,0,0,0,.71-.7,3.45,3.45,0,0,0,.26-.28Z" style="opacity:0.05"></path></g><path d="M129.69,134.94c-7.28.93-9.81,4.62-21.12,16.19-10,10.28-12,12.36-12,12.36s-6.65-13.79-8.78-18.91S67.35,140.05,70.32,147s6.17,26.68,11.23,38.9c4.5,10.89,9,14.72,19.72,8.27,8.72-5.27,28.3-24.68,28.3-24.68Z" style="fill:#b16668"></path><path d="M130,134.36c-8.52,1.8-9.64,4.1-14.31,8.79s-15.84,16.94-15.84,16.94,6.18.12,11.77,8.4c5.13,7.6,5.53,13.22,5.53,13.22L130,169.57Z" style="fill:#37474f"></path><path d="M96.55,163.49c3,6.42,4.76,15.1,1.33,22.42,5.58-7.13,5.17-18.26,1.37-25.22Z" style="fill:#9a4a4d"></path></g><path id="freepik--chest--inject-89" d="M167.84,130.56c4.14.85,23.2,5.06,28.95,7.6,0,0,2,20.48-1.94,38.74-.91,4.2-1.92,14.61-2.45,23.51-.72,12,.2,18.06.36,28.43,0,0-18.14,11.12-47.42,8.92-23-1.73-28.89-10.95-28.89-10.95-.15-15.17,2.35-23,3.52-34.37.84-8.08-.45-17-.14-24,1-22.8,5.19-30.22,10.15-34.11l18-3.58Z" style="fill:#f0f0f0"></path><g id="freepik--head--inject-89"><path d="M175.15,82.47s3.64.27,6,4.74c1.2,2.24,2.06,6.34-1.22,18a46.86,46.86,0,0,1-5.78,12.92,5.91,5.91,0,0,1-3.45,2.68l.24-9,.34-6.27s-5.19-4.59-5.64-9.1c-.57-5.8,1.75-9.08,1.75-9.08Z" style="fill:#455a64"></path><path d="M176.4,82.77c.38-3.27-1.79-6.53-4.38-8.35a39.82,39.82,0,0,0-5.46-2.94,5.24,5.24,0,0,1-2.41-1.93,2,2,0,0,1,.66-2.7,4.74,4.74,0,0,0-5.5,1.27c.07-1.36-1.32-2.37-2.66-2.62a6,6,0,0,0-5.93,2.42,3.24,3.24,0,0,0-3.11-1.59,7.36,7.36,0,0,0-3.74,1.06,35.77,35.77,0,0,0-3.11,2.53,5.23,5.23,0,0,1-3.68,1.35,2.51,2.51,0,0,1-2.32-2.7,4.78,4.78,0,0,0-.88,7,2.89,2.89,0,0,0-2.48,1,5.32,5.32,0,0,0-1.44,4.2c.19,1.42,1.74,2.91,2.84,3.72A3.83,3.83,0,0,0,131,87a5.26,5.26,0,0,0,.32,3.13A6.53,6.53,0,0,0,142,92.24s1.78.3,2,.29c.6,0,1.16-.26,1.77-.27,1.31,0,2.64.07,4,0l7.68-.39A17.32,17.32,0,0,0,168,87.8S176.4,82.79,176.4,82.77Z" style="fill:#37474f"></path><path d="M179.91,114.58a5.57,5.57,0,0,1-7.48-1.51l0,19c-9.19,12-34.47,7.22-24.41-1.75l0-4.23c-6.64-.81-10.55-3.28-12.61-7.86-2.63-5.83-1.4-13-1.05-15.83a70.61,70.61,0,0,0,1-8,25.69,25.69,0,0,1,.36-5.54c.49-2.17,1.46-4.54,3.5-5.53,5.09-2.45,9.79,1.08,16.88,3.77,2.93,1.12,10,1.61,11.92.75-2.47,2.66-2.45,11.06,1.19,14.47a7.77,7.77,0,0,0,1.83,2.31c1.55,1.32,2.82-2.07,4.12-3.4s6.2-2.5,8.3,1.86A9,9,0,0,1,179.91,114.58Z" style="fill:#b16668"></path><path d="M179.18,111.32a2,2,0,1,1-2-2A2,2,0,0,1,179.18,111.32Z" style="fill:#37474f"></path><path d="M148.08,126.07a26.93,26.93,0,0,0,13.4-2.38,16,16,0,0,0,8.34-11.22A15.86,15.86,0,0,1,163,125.8c-4.61,3.16-10.58,3.4-14.88,3.13Z" style="fill:#9a4a4d"></path><path d="M156.06,93.94l4.7,1.93a2.59,2.59,0,0,0-1.41-3.34A2.51,2.51,0,0,0,156.06,93.94Z" style="fill:#263238"></path><path d="M137.72,95.12l4.77-1.85a2.49,2.49,0,0,0-3.25-1.46A2.61,2.61,0,0,0,137.72,95.12Z" style="fill:#263238"></path><path d="M158.81,99.71a2.08,2.08,0,1,1-2-2.1A2.05,2.05,0,0,1,158.81,99.71Z" style="fill:#263238"></path><path d="M143.17,99.21a2.08,2.08,0,1,1-2-2.09A2.05,2.05,0,0,1,143.17,99.21Z" style="fill:#263238"></path><path d="M150.69,94.41l-.76,13-7.16-2A30.29,30.29,0,0,1,150.69,94.41Z" style="fill:#9a4a4d"></path><path d="M154.1,110.31l-7,2.25a3.62,3.62,0,0,0,4.58,2.4A3.73,3.73,0,0,0,154.1,110.31Z" style="fill:#9a4a4d"></path><path d="M153.36,111.54a4.53,4.53,0,0,1,.89-.08,3.71,3.71,0,0,1-2.55,3.5,3.35,3.35,0,0,1-1.16.16A3.28,3.28,0,0,1,153.36,111.54Z" style="fill:#f28f8f"></path></g><path d="M118.55,185c-.84-10.26-.51-17.23,2-26.73s14.43-25,14.43-25l7.33-1.54a88.92,88.92,0,0,0-8.21,15.79l35.69,2.48,6-18.27,7.36,2a313.66,313.66,0,0,0-5,51.44c0,3,.09,6.1.3,9.39,1.8,11,14,6.41,14,6.41l-.29,9.79s-1.83,2.17-6.16,2.82c-2,4.74-.48,25.45.37,38.82s.72,22.85.72,32.57c-52.85,10.09-75.44-3-75.44-3s1.3-30.13,2.9-55.44C116.29,198.85,119.26,193.83,118.55,185Z" style="fill:#455a64"></path><path d="M176.7,236.36s-37.58,1.85-57.67.06l0,35.63s23.24,6.33,59.26,1.12Z" style="fill:#37474f"></path><path d="M162.53,274.83l-1,.05L159.89,237l1,0Z" style="fill:#263238"></path><path d="M182.88,279c-26,4.78-60.2.55-67.68-2.52l-.45,1.1c5.42,2.22,23.47,5,42.94,4.8a150.92,150.92,0,0,0,25.41-2.21ZM172.65,156.35l-15.54-.87-.51,6,15.6,1Z" style="fill:#37474f"></path><path d="M168.29,189.94h0l-3.87-12h0a2.82,2.82,0,0,0-1.78-1.83,8.59,8.59,0,0,0-7.72.88,2.79,2.79,0,0,0-1.33,2.18h0l-1.09,12.56h0c-.12,1.39.77,2.71,2.68,3.55A12.59,12.59,0,0,0,166.47,194C168.15,192.76,168.72,191.26,168.29,189.94Z" style="fill:#263238"></path><path d="M165.46,164.4l-15.92,1.81,4.07,13.42h0a2.82,2.82,0,0,0,1.78,1.83,8.59,8.59,0,0,0,7.72-.87,2.82,2.82,0,0,0,1.33-2.19h0Z" style="fill:#22B357"></path><path d="M162.74,161.08c3.32,1.44,3.65,4.36.74,6.51a12.56,12.56,0,0,1-11.29,1.29c-3.32-1.45-3.65-4.37-.74-6.52A12.53,12.53,0,0,1,162.74,161.08Z" style="fill:#22B357"></path><path d="M162.74,161.08c3.32,1.44,3.65,4.36.74,6.51a12.56,12.56,0,0,1-11.29,1.29c-3.32-1.45-3.65-4.37-.74-6.52A12.53,12.53,0,0,1,162.74,161.08Z" style="fill:#fff;opacity:0.5"></path><path d="M152.05,162.28a11.24,11.24,0,0,1,10.13-1.15c3,1.3,3.28,3.92.67,5.85a11.29,11.29,0,0,1-10.14,1.15C149.73,166.83,149.43,164.21,152.05,162.28Z" style="opacity:0.1"></path><path d="M158.38,157.26a11.61,11.61,0,0,1,4.06,1.79,4.09,4.09,0,0,1,1.46,4.62,4.22,4.22,0,0,1-3.42,2.69,10.87,10.87,0,0,0-.59-4.49C159.05,159.65,158.38,157.26,158.38,157.26Z" style="fill:#f0f0f0"></path><path d="M155.45,157.47c-.45.83-2.29,1.46-3.46,2.42a4.41,4.41,0,0,0-2,2.71,2.77,2.77,0,0,0,1.7,3.2c1.49.52,4.1-2.11,4.32-3S155.45,157.47,155.45,157.47Z" style="fill:#e0e0e0"></path><path d="M156.17,156a2.72,2.72,0,0,0-.68,2.52,4.27,4.27,0,0,1-2,4.59c-2.14,1.48-2.27,2.71-.94,3.64a3.84,3.84,0,0,0,2.87.48s3.29-1.16,3.69-3.76S157.71,156.92,156.17,156Z" style="fill:#f0f0f0"></path><path d="M157.79,167.66c-2.2.25-3.19-.59-2.31-2,.43-.68,1.32-1,1.82-1.75a4,4,0,0,0,.9-2.52c-.06-2.27-3-4.3-1.68-6.43.3,1,.81,1.6,2.54,2.71a6.29,6.29,0,0,1,2.73,6.72C161.43,166.07,159.21,167.5,157.79,167.66Z" style="fill:#fafafa"></path><path d="M162.09,164.89a4.93,4.93,0,0,0-.16-2.51,4.21,4.21,0,0,1-3,3.63,6.13,6.13,0,0,1-2.21.49c-.87,0-1.4-.25-1.4-.58a1,1,0,0,1,.1-.17,1.45,1.45,0,0,1,.12-.19l.07-.08.06-.06a1,1,0,0,1,.17-.18l.08-.07,0,0,.38-.3c.24-.19.46-.36.6-.49l.08-.09a1.14,1.14,0,0,0,.15-.17l0,0a1.09,1.09,0,0,0,.13-.17l.18-.27.09-.14a.08.08,0,0,0,0,0,1.71,1.71,0,0,0,.13-.23l.13-.26a4.27,4.27,0,0,0,.23-.71.78.78,0,0,1,0-.14v0a4.66,4.66,0,0,1-2.29,2.51,5.13,5.13,0,0,1-3,.66c-.95,0-1-.54-1-.6l0,0a5,5,0,0,1,1.56-1.51,6.11,6.11,0,0,0,.95-.82,5.24,5.24,0,0,1-1.18.72,5.74,5.74,0,0,1-2.19.48c-.84-.08-1-.46-.95-1.07a1.6,1.6,0,0,0-.05.21,2.77,2.77,0,0,0,1.7,3.2h0a2.08,2.08,0,0,0,.78.9,3.84,3.84,0,0,0,2.87.48h0a2.85,2.85,0,0,0,2.4.47,5.53,5.53,0,0,0,2.69-1.3h0a4.22,4.22,0,0,0,3.42-2.69,3.76,3.76,0,0,0,.16-2h0A3.21,3.21,0,0,1,162.09,164.89Z" style="opacity:0.05"></path><g id="freepik--arm--inject-89"><path d="M160.66,180.36l5.62-5.3c-4.27-2.42-6.38-3.3-8.27-3.59s-8.62-2.15-11.15-2.45c-1.6-.19-1.92,2.36.27,3.82,1.69,1.11,5.87,2.33,7.73,3.07S160.66,180.36,160.66,180.36Z" style="fill:#9a4a4d"></path><path d="M176.83,201.77c13.34,4.56,25.57,11.08,37.59,10.62,11.74-.46,14.59-4.48,10.91-18.35-2.32-8.74-11-34.25-15.39-43-4.62-9.33-9.35-13.23-21-14.63-3.63,7.11-2.35,24.75.95,32.65,3.09,7.39,7.16,17.42,7.16,17.42s-15-2.24-18.66-3.37-7.6-4.88-10-7.13c-1.49-1.37-3.65-1.33-5.53-1-1,.21-1.81.6-2.81.76l-4,.63a8.73,8.73,0,0,0-2.47.64,3,3,0,0,0-1.67,1.84,4.49,4.49,0,0,0,.57,2.84,2.83,2.83,0,0,0-1.34,2.49A5.93,5.93,0,0,0,152,187a3.58,3.58,0,0,0-.72,2.38,3.78,3.78,0,0,0,1.26,2.57c3.51,1.27,6.53,2.13,9.58,4.28,1.09.76,1.74,1.86,2.87,2.61a9.44,9.44,0,0,0,4.18,1.46A26.8,26.8,0,0,1,176.83,201.77Z" style="fill:#b16668"></path><path d="M152.15,181.05l.27.64c3.9-.58,11.17-.68,11.17-.68A31.83,31.83,0,0,0,152.15,181.05Z" style="fill:#9a4a4d"></path><path d="M162.18,187.48a23.62,23.62,0,0,0-10.74-1.57A8.86,8.86,0,0,0,152,187,31.4,31.4,0,0,1,162.18,187.48Z" style="fill:#9a4a4d"></path><path d="M196,183.86l1,2.57c5.46.69,11.63,3.67,13.26,6.4C208.75,188.37,205.62,185.18,196,183.86Z" style="fill:#9a4a4d"></path><path d="M188.41,135.46c13.62,2.14,16.94,4.74,21.15,13.24S221.13,179,221.13,179s-1.79,3.5-11.63,5.26-14.4-.23-14.4-.23-4.33-10.47-7.52-18.68S185.51,138.55,188.41,135.46Z" style="fill:#37474f"></path></g></g></g></g></svg>
